<?xml version="1.0" encoding="UTF-8"?>
<svg xmlns="http://www.w3.org/2000/svg" xmlns:xlink="http://www.w3.org/1999/xlink" width="2000" height="2000" viewBox="0 0 2000 2000">
<defs>
<clipPath id="clip-0">
<path clip-rule="nonzero" d="M 565 437 L 1435 437 L 1435 1307 L 565 1307 Z M 565 437 "/>
</clipPath>
<clipPath id="clip-1">
<path clip-rule="nonzero" d="M 1000 1269.050781 C 781.121094 1269.050781 603.054688 1090.980469 603.054688 872.101562 C 603.054688 653.21875 781.121094 475.148438 1000 475.148438 C 1218.878906 475.148438 1396.949219 653.21875 1396.949219 872.101562 C 1396.949219 1090.980469 1218.878906 1269.050781 1000 1269.050781 Z M 1400.660156 702.828125 C 1378.761719 651.050781 1347.410156 604.550781 1307.480469 564.621094 C 1267.550781 524.691406 1221.050781 493.339844 1169.269531 471.441406 C 1115.640625 448.761719 1058.691406 437.261719 1000 437.261719 C 941.304688 437.261719 884.355469 448.761719 830.734375 471.441406 C 778.949219 493.339844 732.445312 524.691406 692.519531 564.621094 C 652.589844 604.550781 621.238281 651.050781 599.335938 702.828125 C 576.65625 756.460938 565.15625 813.410156 565.15625 872.101562 C 565.15625 930.789062 576.65625 987.738281 599.335938 1041.371094 C 621.238281 1093.148438 652.589844 1139.648438 692.519531 1179.578125 C 732.445312 1219.511719 778.949219 1250.859375 830.734375 1272.761719 C 884.355469 1295.441406 941.304688 1306.941406 1000 1306.941406 C 1058.691406 1306.941406 1115.640625 1295.441406 1169.269531 1272.761719 C 1221.050781 1250.859375 1267.550781 1219.511719 1307.480469 1179.578125 C 1347.410156 1139.648438 1378.761719 1093.148438 1400.660156 1041.371094 C 1423.339844 987.738281 1434.839844 930.789062 1434.839844 872.101562 C 1434.839844 813.410156 1423.339844 756.460938 1400.660156 702.828125 Z M 1400.660156 702.828125 "/>
</clipPath>
<clipPath id="clip-2">
<path clip-rule="nonzero" d="M 1000 1269.050781 C 781.121094 1269.050781 603.054688 1090.980469 603.054688 872.101562 C 603.054688 653.21875 781.121094 475.148438 1000 475.148438 C 1218.878906 475.148438 1396.949219 653.21875 1396.949219 872.101562 C 1396.949219 1090.980469 1218.878906 1269.050781 1000 1269.050781 Z M 1400.660156 702.828125 C 1378.761719 651.050781 1347.410156 604.550781 1307.480469 564.621094 C 1267.550781 524.691406 1221.050781 493.339844 1169.269531 471.441406 C 1115.640625 448.761719 1058.691406 437.261719 1000 437.261719 C 941.304688 437.261719 884.355469 448.761719 830.734375 471.441406 C 778.949219 493.339844 732.445312 524.691406 692.519531 564.621094 C 652.589844 604.550781 621.238281 651.050781 599.335938 702.828125 C 576.65625 756.460938 565.15625 813.410156 565.15625 872.101562 C 565.15625 930.789062 576.65625 987.738281 599.335938 1041.371094 C 621.238281 1093.148438 652.589844 1139.648438 692.519531 1179.578125 C 732.445312 1219.511719 778.949219 1250.859375 830.734375 1272.761719 C 884.355469 1295.441406 941.304688 1306.941406 1000 1306.941406 C 1058.691406 1306.941406 1115.640625 1295.441406 1169.269531 1272.761719 C 1221.050781 1250.859375 1267.550781 1219.511719 1307.480469 1179.578125 C 1347.410156 1139.648438 1378.761719 1093.148438 1400.660156 1041.371094 C 1423.339844 987.738281 1434.839844 930.789062 1434.839844 872.101562 C 1434.839844 813.410156 1423.339844 756.460938 1400.660156 702.828125 "/>
</clipPath>
<linearGradient id="linear-pattern-0" gradientUnits="userSpaceOnUse" x1="0.141842" y1="0" x2="1.500359" y2="0" gradientTransform="matrix(-543.163, 713.969, -713.969, -543.163, 1445.99, 285.86)">
<stop offset="0" stop-color="rgb(87.765503%, 87.542725%, 87.597656%)" stop-opacity="1"/>
<stop offset="0.00390625" stop-color="rgb(87.304688%, 87.07428%, 87.132263%)" stop-opacity="1"/>
<stop offset="0.0078125" stop-color="rgb(86.84845%, 86.608887%, 86.668396%)" stop-opacity="1"/>
<stop offset="0.0117188" stop-color="rgb(86.392212%, 86.143494%, 86.206055%)" stop-opacity="1"/>
<stop offset="0.015625" stop-color="rgb(85.932922%, 85.676575%, 85.740662%)" stop-opacity="1"/>
<stop offset="0.0195313" stop-color="rgb(85.475159%, 85.211182%, 85.276794%)" stop-opacity="1"/>
<stop offset="0.0234375" stop-color="rgb(85.017395%, 84.744263%, 84.812927%)" stop-opacity="1"/>
<stop offset="0.0273437" stop-color="rgb(84.559631%, 84.27887%, 84.347534%)" stop-opacity="1"/>
<stop offset="0.03125" stop-color="rgb(84.103394%, 83.813477%, 83.885193%)" stop-opacity="1"/>
<stop offset="0.0351563" stop-color="rgb(83.644104%, 83.346558%, 83.421326%)" stop-opacity="1"/>
<stop offset="0.0390625" stop-color="rgb(83.184814%, 82.879639%, 82.955933%)" stop-opacity="1"/>
<stop offset="0.0429688" stop-color="rgb(82.728577%, 82.414246%, 82.492065%)" stop-opacity="1"/>
<stop offset="0.046875" stop-color="rgb(82.270813%, 81.947327%, 82.028198%)" stop-opacity="1"/>
<stop offset="0.0507812" stop-color="rgb(81.811523%, 81.481934%, 81.562805%)" stop-opacity="1"/>
<stop offset="0.0546875" stop-color="rgb(81.355286%, 81.016541%, 81.100464%)" stop-opacity="1"/>
<stop offset="0.0585938" stop-color="rgb(80.897522%, 80.549622%, 80.636597%)" stop-opacity="1"/>
<stop offset="0.0625" stop-color="rgb(80.438232%, 80.081177%, 80.169678%)" stop-opacity="1"/>
<stop offset="0.0664063" stop-color="rgb(79.980469%, 79.61731%, 79.707336%)" stop-opacity="1"/>
<stop offset="0.0703125" stop-color="rgb(79.524231%, 79.151917%, 79.244995%)" stop-opacity="1"/>
<stop offset="0.0742188" stop-color="rgb(79.064941%, 78.683472%, 78.778076%)" stop-opacity="1"/>
<stop offset="0.078125" stop-color="rgb(78.607178%, 78.218079%, 78.314209%)" stop-opacity="1"/>
<stop offset="0.0820313" stop-color="rgb(78.15094%, 77.754211%, 77.851868%)" stop-opacity="1"/>
<stop offset="0.0859375" stop-color="rgb(77.69165%, 77.285767%, 77.386475%)" stop-opacity="1"/>
<stop offset="0.0898438" stop-color="rgb(77.233887%, 76.818848%, 76.922607%)" stop-opacity="1"/>
<stop offset="0.09375" stop-color="rgb(76.777649%, 76.35498%, 76.45874%)" stop-opacity="1"/>
<stop offset="0.0976562" stop-color="rgb(76.318359%, 75.886536%, 75.993347%)" stop-opacity="1"/>
<stop offset="0.101562" stop-color="rgb(75.85907%, 75.419617%, 75.52948%)" stop-opacity="1"/>
<stop offset="0.105469" stop-color="rgb(75.404358%, 74.95575%, 75.067139%)" stop-opacity="1"/>
<stop offset="0.109375" stop-color="rgb(74.945068%, 74.488831%, 74.601746%)" stop-opacity="1"/>
<stop offset="0.113281" stop-color="rgb(74.487305%, 74.021912%, 74.137878%)" stop-opacity="1"/>
<stop offset="0.117188" stop-color="rgb(74.029541%, 73.556519%, 73.674011%)" stop-opacity="1"/>
<stop offset="0.121094" stop-color="rgb(73.571777%, 73.091125%, 73.210144%)" stop-opacity="1"/>
<stop offset="0.125" stop-color="rgb(73.114014%, 72.624207%, 72.746277%)" stop-opacity="1"/>
<stop offset="0.128906" stop-color="rgb(72.65625%, 72.158813%, 72.28241%)" stop-opacity="1"/>
<stop offset="0.132813" stop-color="rgb(72.19696%, 71.691895%, 71.817017%)" stop-opacity="1"/>
<stop offset="0.136719" stop-color="rgb(71.740723%, 71.226501%, 71.354675%)" stop-opacity="1"/>
<stop offset="0.140625" stop-color="rgb(71.284485%, 70.761108%, 70.890808%)" stop-opacity="1"/>
<stop offset="0.144531" stop-color="rgb(70.823669%, 70.294189%, 70.425415%)" stop-opacity="1"/>
<stop offset="0.148438" stop-color="rgb(70.367432%, 69.828796%, 69.963074%)" stop-opacity="1"/>
<stop offset="0.152344" stop-color="rgb(69.911194%, 69.363403%, 69.499207%)" stop-opacity="1"/>
<stop offset="0.15625" stop-color="rgb(69.451904%, 68.894958%, 69.033813%)" stop-opacity="1"/>
<stop offset="0.160156" stop-color="rgb(68.992615%, 68.429565%, 68.569946%)" stop-opacity="1"/>
<stop offset="0.164063" stop-color="rgb(68.536377%, 67.964172%, 68.106079%)" stop-opacity="1"/>
<stop offset="0.167969" stop-color="rgb(68.077087%, 67.495728%, 67.640686%)" stop-opacity="1"/>
<stop offset="0.171875" stop-color="rgb(67.619324%, 67.030334%, 67.176819%)" stop-opacity="1"/>
<stop offset="0.175781" stop-color="rgb(67.163086%, 66.566467%, 66.714478%)" stop-opacity="1"/>
<stop offset="0.179688" stop-color="rgb(66.705322%, 66.099548%, 66.25061%)" stop-opacity="1"/>
<stop offset="0.183594" stop-color="rgb(66.246033%, 65.631104%, 65.783691%)" stop-opacity="1"/>
<stop offset="0.1875" stop-color="rgb(65.789795%, 65.167236%, 65.32135%)" stop-opacity="1"/>
<stop offset="0.191406" stop-color="rgb(65.332031%, 64.701843%, 64.859009%)" stop-opacity="1"/>
<stop offset="0.195312" stop-color="rgb(64.872742%, 64.233398%, 64.39209%)" stop-opacity="1"/>
<stop offset="0.199219" stop-color="rgb(64.416504%, 63.768005%, 63.929749%)" stop-opacity="1"/>
<stop offset="0.203125" stop-color="rgb(63.95874%, 63.302612%, 63.465881%)" stop-opacity="1"/>
<stop offset="0.207031" stop-color="rgb(63.499451%, 62.835693%, 63.000488%)" stop-opacity="1"/>
<stop offset="0.210938" stop-color="rgb(63.043213%, 62.3703%, 62.538147%)" stop-opacity="1"/>
<stop offset="0.214844" stop-color="rgb(62.585449%, 61.904907%, 62.072754%)" stop-opacity="1"/>
<stop offset="0.21875" stop-color="rgb(62.12616%, 61.436462%, 61.607361%)" stop-opacity="1"/>
<stop offset="0.222656" stop-color="rgb(61.668396%, 60.971069%, 61.14502%)" stop-opacity="1"/>
<stop offset="0.226563" stop-color="rgb(61.210632%, 60.505676%, 60.679626%)" stop-opacity="1"/>
<stop offset="0.230469" stop-color="rgb(60.752869%, 60.038757%, 60.215759%)" stop-opacity="1"/>
<stop offset="0.234375" stop-color="rgb(60.296631%, 59.573364%, 59.753418%)" stop-opacity="1"/>
<stop offset="0.238281" stop-color="rgb(59.837341%, 59.106445%, 59.288025%)" stop-opacity="1"/>
<stop offset="0.242188" stop-color="rgb(59.378052%, 58.639526%, 58.822632%)" stop-opacity="1"/>
<stop offset="0.246094" stop-color="rgb(58.92334%, 58.175659%, 58.361816%)" stop-opacity="1"/>
<stop offset="0.25" stop-color="rgb(58.465576%, 57.70874%, 57.896423%)" stop-opacity="1"/>
<stop offset="0.253906" stop-color="rgb(58.006287%, 57.241821%, 57.43103%)" stop-opacity="1"/>
<stop offset="0.257813" stop-color="rgb(57.548523%, 56.776428%, 56.968689%)" stop-opacity="1"/>
<stop offset="0.261719" stop-color="rgb(57.092285%, 56.311035%, 56.504822%)" stop-opacity="1"/>
<stop offset="0.265625" stop-color="rgb(56.632996%, 55.84259%, 56.039429%)" stop-opacity="1"/>
<stop offset="0.269531" stop-color="rgb(56.173706%, 55.377197%, 55.575562%)" stop-opacity="1"/>
<stop offset="0.273438" stop-color="rgb(55.717468%, 54.911804%, 55.111694%)" stop-opacity="1"/>
<stop offset="0.277344" stop-color="rgb(55.259705%, 54.444885%, 54.647827%)" stop-opacity="1"/>
<stop offset="0.28125" stop-color="rgb(54.801941%, 53.979492%, 54.18396%)" stop-opacity="1"/>
<stop offset="0.285156" stop-color="rgb(54.344177%, 53.514099%, 53.720093%)" stop-opacity="1"/>
<stop offset="0.289062" stop-color="rgb(53.884888%, 53.045654%, 53.2547%)" stop-opacity="1"/>
<stop offset="0.292969" stop-color="rgb(53.427124%, 52.580261%, 52.790833%)" stop-opacity="1"/>
<stop offset="0.296875" stop-color="rgb(52.970886%, 52.114868%, 52.326965%)" stop-opacity="1"/>
<stop offset="0.300781" stop-color="rgb(52.511597%, 51.647949%, 51.863098%)" stop-opacity="1"/>
<stop offset="0.304688" stop-color="rgb(52.053833%, 51.18103%, 51.397705%)" stop-opacity="1"/>
<stop offset="0.308594" stop-color="rgb(51.597595%, 50.717163%, 50.935364%)" stop-opacity="1"/>
<stop offset="0.3125" stop-color="rgb(51.138306%, 50.248718%, 50.469971%)" stop-opacity="1"/>
<stop offset="0.316406" stop-color="rgb(50.680542%, 49.783325%, 50.006104%)" stop-opacity="1"/>
<stop offset="0.320313" stop-color="rgb(50.224304%, 49.317932%, 49.543762%)" stop-opacity="1"/>
<stop offset="0.324219" stop-color="rgb(49.765015%, 48.851013%, 49.078369%)" stop-opacity="1"/>
<stop offset="0.328125" stop-color="rgb(49.307251%, 48.384094%, 48.612976%)" stop-opacity="1"/>
<stop offset="0.332031" stop-color="rgb(48.851013%, 47.920227%, 48.152161%)" stop-opacity="1"/>
<stop offset="0.335938" stop-color="rgb(48.391724%, 47.453308%, 47.686768%)" stop-opacity="1"/>
<stop offset="0.339844" stop-color="rgb(47.93396%, 46.986389%, 47.221375%)" stop-opacity="1"/>
<stop offset="0.34375" stop-color="rgb(47.477722%, 46.520996%, 46.759033%)" stop-opacity="1"/>
<stop offset="0.347656" stop-color="rgb(47.018433%, 46.055603%, 46.29364%)" stop-opacity="1"/>
<stop offset="0.351562" stop-color="rgb(46.560669%, 45.588684%, 45.829773%)" stop-opacity="1"/>
<stop offset="0.355469" stop-color="rgb(46.104431%, 45.123291%, 45.367432%)" stop-opacity="1"/>
<stop offset="0.359375" stop-color="rgb(45.646667%, 44.656372%, 44.902039%)" stop-opacity="1"/>
<stop offset="0.363281" stop-color="rgb(45.187378%, 44.189453%, 44.436646%)" stop-opacity="1"/>
<stop offset="0.367188" stop-color="rgb(44.728088%, 43.722534%, 43.972778%)" stop-opacity="1"/>
<stop offset="0.371094" stop-color="rgb(44.273376%, 43.258667%, 43.510437%)" stop-opacity="1"/>
<stop offset="0.375" stop-color="rgb(43.814087%, 42.791748%, 43.045044%)" stop-opacity="1"/>
<stop offset="0.378906" stop-color="rgb(43.356323%, 42.324829%, 42.581177%)" stop-opacity="1"/>
<stop offset="0.382813" stop-color="rgb(42.89856%, 41.859436%, 42.11731%)" stop-opacity="1"/>
<stop offset="0.386719" stop-color="rgb(42.440796%, 41.392517%, 41.653442%)" stop-opacity="1"/>
<stop offset="0.390625" stop-color="rgb(41.984558%, 40.92865%, 41.191101%)" stop-opacity="1"/>
<stop offset="0.394531" stop-color="rgb(41.525269%, 40.461731%, 40.725708%)" stop-opacity="1"/>
<stop offset="0.398438" stop-color="rgb(41.065979%, 39.993286%, 40.260315%)" stop-opacity="1"/>
<stop offset="0.402344" stop-color="rgb(40.611267%, 39.529419%, 39.797974%)" stop-opacity="1"/>
<stop offset="0.40625" stop-color="rgb(40.153503%, 39.064026%, 39.334106%)" stop-opacity="1"/>
<stop offset="0.410156" stop-color="rgb(39.692688%, 38.595581%, 38.868713%)" stop-opacity="1"/>
<stop offset="0.414063" stop-color="rgb(39.23645%, 38.130188%, 38.404846%)" stop-opacity="1"/>
<stop offset="0.417969" stop-color="rgb(38.778687%, 37.664795%, 37.940979%)" stop-opacity="1"/>
<stop offset="0.421875" stop-color="rgb(38.319397%, 37.19635%, 37.475586%)" stop-opacity="1"/>
<stop offset="0.425781" stop-color="rgb(37.863159%, 36.732483%, 37.013245%)" stop-opacity="1"/>
<stop offset="0.429688" stop-color="rgb(37.405396%, 36.26709%, 36.549377%)" stop-opacity="1"/>
<stop offset="0.433594" stop-color="rgb(36.946106%, 35.798645%, 36.083984%)" stop-opacity="1"/>
<stop offset="0.4375" stop-color="rgb(36.489868%, 35.333252%, 35.620117%)" stop-opacity="1"/>
<stop offset="0.441406" stop-color="rgb(36.032104%, 34.867859%, 35.157776%)" stop-opacity="1"/>
<stop offset="0.445312" stop-color="rgb(35.572815%, 34.40094%, 34.692383%)" stop-opacity="1"/>
<stop offset="0.449219" stop-color="rgb(35.116577%, 33.935547%, 34.228516%)" stop-opacity="1"/>
<stop offset="0.453125" stop-color="rgb(34.658813%, 33.468628%, 33.764648%)" stop-opacity="1"/>
<stop offset="0.457031" stop-color="rgb(34.199524%, 33.003235%, 33.300781%)" stop-opacity="1"/>
<stop offset="0.460938" stop-color="rgb(33.743286%, 32.537842%, 32.836914%)" stop-opacity="1"/>
<stop offset="0.464844" stop-color="rgb(33.285522%, 32.070923%, 32.373047%)" stop-opacity="1"/>
<stop offset="0.46875" stop-color="rgb(32.826233%, 31.604004%, 31.907654%)" stop-opacity="1"/>
<stop offset="0.472656" stop-color="rgb(32.368469%, 31.138611%, 31.443787%)" stop-opacity="1"/>
<stop offset="0.476563" stop-color="rgb(31.912231%, 30.673218%, 30.981445%)" stop-opacity="1"/>
<stop offset="0.480469" stop-color="rgb(31.452942%, 30.204773%, 30.516052%)" stop-opacity="1"/>
<stop offset="0.484375" stop-color="rgb(30.995178%, 29.73938%, 30.050659%)" stop-opacity="1"/>
<stop offset="0.488281" stop-color="rgb(30.537415%, 29.273987%, 29.588318%)" stop-opacity="1"/>
<stop offset="0.492188" stop-color="rgb(30.078125%, 28.805542%, 29.122925%)" stop-opacity="1"/>
<stop offset="0.496094" stop-color="rgb(29.621887%, 28.341675%, 28.659058%)" stop-opacity="1"/>
<stop offset="0.5" stop-color="rgb(29.165649%, 27.876282%, 28.196716%)" stop-opacity="1"/>
<stop offset="0.503906" stop-color="rgb(28.70636%, 27.407837%, 27.729797%)" stop-opacity="1"/>
<stop offset="0.507813" stop-color="rgb(28.24707%, 26.942444%, 27.26593%)" stop-opacity="1"/>
<stop offset="0.511719" stop-color="rgb(27.792358%, 26.478577%, 26.805115%)" stop-opacity="1"/>
<stop offset="0.515625" stop-color="rgb(27.333069%, 26.010132%, 26.338196%)" stop-opacity="1"/>
<stop offset="0.519531" stop-color="rgb(26.875305%, 25.543213%, 25.874329%)" stop-opacity="1"/>
<stop offset="0.523438" stop-color="rgb(26.417542%, 25.079346%, 25.411987%)" stop-opacity="1"/>
<stop offset="0.527344" stop-color="rgb(25.959778%, 24.612427%, 24.946594%)" stop-opacity="1"/>
<stop offset="0.53125" stop-color="rgb(25.502014%, 24.145508%, 24.482727%)" stop-opacity="1"/>
<stop offset="0.535156" stop-color="rgb(25.04425%, 23.680115%, 24.01886%)" stop-opacity="1"/>
<stop offset="0.539063" stop-color="rgb(24.586487%, 23.214722%, 23.554993%)" stop-opacity="1"/>
<stop offset="0.542969" stop-color="rgb(24.127197%, 22.746277%, 23.0896%)" stop-opacity="1"/>
<stop offset="0.546875" stop-color="rgb(23.670959%, 22.280884%, 22.625732%)" stop-opacity="1"/>
<stop offset="0.550781" stop-color="rgb(23.213196%, 21.817017%, 22.163391%)" stop-opacity="1"/>
<stop offset="0.554688" stop-color="rgb(22.753906%, 21.348572%, 21.697998%)" stop-opacity="1"/>
<stop offset="0.558594" stop-color="rgb(22.297668%, 20.883179%, 21.234131%)" stop-opacity="1"/>
<stop offset="0.5625" stop-color="rgb(21.839905%, 20.417786%, 20.770264%)" stop-opacity="1"/>
<stop offset="0.566406" stop-color="rgb(21.380615%, 19.950867%, 20.306396%)" stop-opacity="1"/>
<stop offset="0.570313" stop-color="rgb(20.924377%, 19.485474%, 19.842529%)" stop-opacity="1"/>
<stop offset="0.574219" stop-color="rgb(20.466614%, 19.018555%, 19.378662%)" stop-opacity="1"/>
<stop offset="0.578125" stop-color="rgb(20.007324%, 18.551636%, 18.913269%)" stop-opacity="1"/>
<stop offset="0.582031" stop-color="rgb(19.549561%, 18.086243%, 18.449402%)" stop-opacity="1"/>
<stop offset="0.585938" stop-color="rgb(19.093323%, 17.62085%, 17.987061%)" stop-opacity="1"/>
<stop offset="0.589844" stop-color="rgb(18.634033%, 17.153931%, 17.521667%)" stop-opacity="1"/>
<stop offset="0.59375" stop-color="rgb(18.17627%, 16.687012%, 17.056274%)" stop-opacity="1"/>
<stop offset="0.597656" stop-color="rgb(17.720032%, 16.223145%, 16.595459%)" stop-opacity="1"/>
<stop offset="0.601563" stop-color="rgb(17.260742%, 15.7547%, 16.130066%)" stop-opacity="1"/>
<stop offset="0.605469" stop-color="rgb(16.802979%, 15.289307%, 15.664673%)" stop-opacity="1"/>
<stop offset="0.609375" stop-color="rgb(16.346741%, 14.823914%, 15.202332%)" stop-opacity="1"/>
<stop offset="0.613281" stop-color="rgb(15.887451%, 14.355469%, 14.736938%)" stop-opacity="1"/>
<stop offset="0.617188" stop-color="rgb(15.428162%, 13.890076%, 14.271545%)" stop-opacity="1"/>
<stop offset="0.621094" stop-color="rgb(14.97345%, 13.426208%, 13.81073%)" stop-opacity="1"/>
<stop offset="0.625" stop-color="rgb(14.51416%, 12.957764%, 13.343811%)" stop-opacity="1"/>
<stop offset="0.628906" stop-color="rgb(14.122009%, 12.557983%, 12.947083%)" stop-opacity="1"/>
<stop offset="0.632813" stop-color="rgb(13.729858%, 12.159729%, 12.548828%)" stop-opacity="1"/>
<stop offset="0.640625" stop-color="rgb(13.729858%, 12.159729%, 12.548828%)" stop-opacity="1"/>
<stop offset="0.65625" stop-color="rgb(13.729858%, 12.159729%, 12.548828%)" stop-opacity="1"/>
<stop offset="0.6875" stop-color="rgb(13.729858%, 12.159729%, 12.548828%)" stop-opacity="1"/>
<stop offset="0.75" stop-color="rgb(13.729858%, 12.159729%, 12.548828%)" stop-opacity="1"/>
<stop offset="1" stop-color="rgb(13.729858%, 12.159729%, 12.548828%)" stop-opacity="1"/>
</linearGradient>
</defs>
<path fill-rule="nonzero" fill="rgb(13.729858%, 12.159729%, 12.548828%)" fill-opacity="1" d="M 1150.378906 889.628906 C 1145.308594 852.898438 1133.21875 818.320312 1111.898438 787.511719 C 1098.949219 768.800781 1083.039062 753.308594 1062.511719 742.828125 C 1034.910156 804.789062 1033.699219 806.371094 982.949219 849.789062 C 981.574219 850.96875 980.582031 853.808594 980.910156 855.589844 C 982.894531 866.378906 984.824219 877.179688 986.753906 887.980469 C 982.6875 882.851562 976.835938 879.210938 970.085938 878.101562 C 968.667969 877.871094 967.234375 877.671875 965.75 877.671875 C 950.933594 877.671875 938.925781 889.671875 938.925781 904.488281 C 938.925781 919.300781 950.933594 931.308594 965.75 931.308594 C 967.308594 931.308594 968.816406 931.109375 970.304688 930.859375 C 980.199219 929.148438 988.183594 922.039062 991.203125 912.679688 C 994.71875 931.808594 998.410156 950.898438 1002.660156 969.871094 C 1004.28125 977.128906 1006.261719 984.261719 1008.648438 991.191406 C 1015.339844 1018.910156 1030.808594 1044.660156 1052.691406 1063.890625 C 1076.988281 1085.230469 1108.238281 1099.730469 1141.089844 1101.96875 C 1138.488281 1068.78125 1135.621094 1035.550781 1133.011719 1002.359375 C 1125.960938 999.289062 1119.421875 995.160156 1113.628906 990.230469 C 1108.769531 970.460938 1102.371094 951.039062 1095.878906 931.660156 C 1092.699219 922.179688 1087.640625 919.058594 1078.328125 918.238281 C 1062.941406 916.890625 1048.429688 912.160156 1036.078125 902.300781 C 1026.839844 894.921875 1021.359375 885.300781 1018.261719 872.578125 C 1029.078125 875.140625 1040.261719 878.019531 1051.75 881.261719 C 1065.488281 885.140625 1078.589844 889.230469 1091.019531 893.429688 C 1092.601562 893.179688 1094.171875 892.929688 1095.75 892.679688 C 1104.761719 902.808594 1109.839844 912.03125 1112.789062 918.441406 C 1118.058594 929.910156 1118.621094 934.378906 1124.800781 948.210938 C 1130.761719 961.558594 1140.238281 970.921875 1155.851562 973.519531 C 1156.089844 970.539062 1156.601562 968.160156 1156.429688 965.839844 C 1154.578125 940.421875 1153.871094 914.839844 1150.378906 889.628906 "/>
<path fill-rule="nonzero" fill="rgb(13.729858%, 12.159729%, 12.548828%)" fill-opacity="1" d="M 1000 1171.601562 C 834.589844 1171.601562 700.5 1037.511719 700.5 872.101562 C 700.5 706.691406 834.589844 572.601562 1000 572.601562 C 1044.171875 572.601562 1086.101562 582.171875 1123.851562 599.328125 C 1085.230469 588.011719 1038.199219 581.761719 985.9375 590.351562 C 964.242188 593.921875 859.164062 611.191406 795.960938 700.691406 C 763.757812 746.289062 753.65625 794.730469 750.332031 816 C 744.351562 854.261719 747.4375 886.570312 751.164062 908.089844 C 752.105469 902.441406 756.082031 882.96875 773.5625 869.089844 C 777.980469 865.589844 799.136719 849.828125 822.507812 857.480469 C 831.890625 860.550781 838.1875 866.269531 841.589844 869.921875 C 841.238281 861.550781 839.578125 795.25 892.191406 750.460938 C 940.84375 709.050781 1000.148438 716.460938 1013.308594 718.109375 C 1029.96875 720.191406 1043.351562 724.550781 1052.300781 728.058594 C 1055.378906 717.109375 1062.199219 698.410156 1078.019531 680.78125 C 1108.660156 646.648438 1150.019531 642.199219 1163.46875 640.960938 C 1173.179688 640.058594 1182.28125 640.261719 1190.671875 641.121094 C 1257.140625 696.058594 1299.5 779.128906 1299.5 872.101562 C 1299.5 1037.511719 1165.410156 1171.601562 1000 1171.601562 Z M 1000 485.460938 C 786.804688 485.460938 613.359375 658.910156 613.359375 872.101562 C 613.359375 1085.300781 786.804688 1258.738281 1000 1258.738281 C 1213.199219 1258.738281 1386.640625 1085.300781 1386.640625 872.101562 C 1386.640625 658.910156 1213.199219 485.460938 1000 485.460938 "/>
<path fill-rule="nonzero" fill="rgb(13.729858%, 12.159729%, 12.548828%)" fill-opacity="1" d="M 930.355469 904.488281 C 930.355469 884.941406 946.199219 869.089844 965.75 869.089844 C 967.710938 869.089844 969.601562 869.359375 971.472656 869.671875 C 970.472656 864.300781 969.488281 858.929688 968.929688 853.511719 C 968.664062 850.949219 970.058594 847.390625 971.941406 845.601562 C 976.984375 840.808594 982.855469 836.910156 988.140625 832.351562 C 1015.191406 809.011719 1037.210938 782.070312 1048.359375 747.441406 C 1051.621094 737.308594 1051.691406 737.171875 1041.671875 734.429688 C 1003.828125 724.078125 967.25 729.980469 931.53125 743.820312 C 893.402344 758.601562 868.929688 785.859375 858.257812 825.53125 C 851.769531 849.660156 850.269531 874.148438 851.613281 898.941406 C 853.269531 929.488281 854.109375 959.859375 832.472656 985.730469 C 858.761719 995.011719 884.425781 998.25 908.394531 982.96875 C 930.074219 969.140625 950.886719 953.980469 971.757812 939.28125 C 969.796875 939.621094 967.808594 939.878906 965.75 939.878906 C 946.199219 939.878906 930.355469 924.039062 930.355469 904.488281 "/>
<g clip-path="url(#clip-0)">
<g clip-path="url(#clip-1)">
<g clip-path="url(#clip-2)">
<path fill-rule="nonzero" fill="url(#linear-pattern-0)" d="M 1853.917969 756.078125 L 883.976562 18.183594 L 146.078125 988.121094 L 1116.019531 1726.019531 Z M 1853.917969 756.078125 "/>
</g>
</g>
</g>
<path fill-rule="nonzero" fill="rgb(13.729858%, 12.159729%, 12.548828%)" fill-opacity="1" d="M 608.121094 1445.421875 L 578.792969 1438.660156 C 576.046875 1437.71875 574.675781 1435.28125 574.675781 1431.328125 C 574.675781 1427.429688 576.757812 1425.480469 580.914062 1425.480469 L 615.515625 1425.480469 L 615.515625 1405.929688 L 580.078125 1405.929688 C 578.320312 1406.101562 576.582031 1406.328125 574.867188 1406.628906 C 570.859375 1407.320312 567.507812 1408.429688 564.761719 1409.941406 C 561.863281 1409.761719 558.988281 1409.429688 556.15625 1408.800781 C 549.730469 1407.371094 543.453125 1404.28125 539.410156 1399.089844 C 533.570312 1391.578125 533.425781 1381.75 534.386719 1372.289062 C 532.5 1379.601562 530.601562 1387.019531 530.710938 1394.570312 C 530.816406 1402.121094 533.183594 1409.949219 538.675781 1415.140625 C 542.875 1419.101562 548.320312 1421.078125 554.054688 1422.25 C 552.65625 1425.558594 551.933594 1429.03125 551.972656 1432.679688 C 552.015625 1437.179688 553.066406 1441.359375 555.125 1445.21875 C 557.183594 1449.128906 560.011719 1452.28125 563.613281 1454.679688 C 566.058594 1456.351562 569.082031 1457.640625 572.683594 1458.539062 L 595.515625 1463.101562 C 598.257812 1463.871094 599.632812 1466.300781 599.632812 1470.371094 C 599.632812 1474.441406 597.570312 1476.480469 593.457031 1476.480469 L 557.117188 1476.480469 L 557.117188 1496.03125 L 595.578125 1496.03125 C 597.550781 1496.03125 599.332031 1495.859375 600.917969 1495.519531 C 605.03125 1494.789062 608.679688 1493.308594 611.851562 1491.078125 C 615.621094 1488.421875 618.410156 1484.859375 620.210938 1480.398438 C 622.054688 1475.988281 622.699219 1471.269531 622.140625 1466.25 C 621.839844 1455.789062 617.167969 1448.851562 608.121094 1445.421875 "/>
<path fill-rule="nonzero" fill="rgb(13.729858%, 12.159729%, 12.548828%)" fill-opacity="1" d="M 669.542969 1405.929688 L 632.625 1405.929688 L 632.625 1496.101562 L 653.015625 1496.101562 L 653.015625 1425.03125 L 666.457031 1425.03125 C 675.632812 1425.03125 680.21875 1429.058594 680.21875 1437.121094 C 680.21875 1445.21875 675.632812 1449.269531 666.457031 1449.269531 L 660.476562 1449.269531 L 660.476562 1468.828125 L 669.542969 1468.828125 C 690.769531 1468.828125 701.378906 1458.339844 701.378906 1437.378906 C 701.378906 1416.410156 690.769531 1405.929688 669.542969 1405.929688 "/>
<path fill-rule="nonzero" fill="rgb(13.729858%, 12.159729%, 12.548828%)" fill-opacity="1" d="M 856.769531 1454.929688 L 864.679688 1445.609375 C 869.4375 1440.808594 871.859375 1435.078125 871.945312 1428.441406 C 872.03125 1421.359375 869.953125 1415.808594 865.707031 1411.78125 C 861.503906 1407.789062 856.0625 1405.839844 849.371094 1405.929688 L 802.164062 1405.929688 L 802.226562 1496.03125 L 822.421875 1496.03125 L 822.421875 1424.640625 L 849.5625 1424.640625 C 851.578125 1424.640625 852.589844 1425.441406 852.589844 1427.019531 C 852.589844 1428.609375 851.964844 1430.128906 850.722656 1431.589844 L 835.929688 1449.339844 C 832.371094 1453.628906 832.371094 1459.421875 835.929688 1466.699219 L 850.914062 1496.03125 L 875.613281 1496.03125 L 856.1875 1461.238281 C 855.203125 1458.878906 855.394531 1456.78125 856.769531 1454.929688 "/>
<path fill-rule="nonzero" fill="rgb(13.729858%, 12.159729%, 12.548828%)" fill-opacity="1" d="M 878.828125 1425.480469 L 899.730469 1425.480469 L 899.730469 1496.101562 L 920.699219 1496.101562 L 920.699219 1425.480469 L 940.570312 1425.480469 L 940.570312 1405.988281 L 878.828125 1405.988281 L 878.828125 1425.480469 "/>
<path fill-rule="nonzero" fill="rgb(13.729858%, 12.159729%, 12.548828%)" fill-opacity="1" d="M 1091.328125 1453.261719 L 1059.621094 1408.820312 C 1058.289062 1407.058594 1056.601562 1405.859375 1054.539062 1405.21875 C 1052.441406 1404.53125 1050.359375 1404.53125 1048.300781 1405.21875 C 1046.238281 1405.898438 1044.570312 1407.128906 1043.289062 1408.878906 C 1042 1410.679688 1041.359375 1412.660156 1041.359375 1414.800781 L 1041.359375 1496.101562 L 1061.550781 1496.101562 L 1061.550781 1448.179688 L 1093.320312 1492.691406 C 1094.609375 1494.449219 1096.28125 1495.648438 1098.339844 1496.289062 C 1100.441406 1496.980469 1102.519531 1496.980469 1104.578125 1496.289062 C 1106.679688 1495.601562 1108.351562 1494.378906 1109.601562 1492.621094 C 1110.878906 1490.871094 1111.53125 1488.890625 1111.53125 1486.710938 L 1111.53125 1405.859375 L 1091.328125 1405.859375 L 1091.328125 1453.261719 "/>
<path fill-rule="nonzero" fill="rgb(13.729858%, 12.159729%, 12.548828%)" fill-opacity="1" d="M 1164.910156 1405.988281 L 1144.070312 1405.988281 L 1144.070312 1477.699219 C 1144.070312 1489.921875 1149.75 1496.03125 1161.109375 1496.03125 L 1202.46875 1496.03125 L 1202.46875 1476.609375 L 1164.910156 1476.609375 L 1164.910156 1405.988281 "/>
<path fill-rule="nonzero" fill="rgb(13.729858%, 12.159729%, 12.548828%)" fill-opacity="1" d="M 1267.039062 1456.800781 C 1267.039062 1470.558594 1261 1477.441406 1248.910156 1477.441406 L 1247.808594 1477.441406 C 1235.71875 1477.441406 1229.671875 1470.558594 1229.671875 1456.800781 L 1229.671875 1445.871094 C 1229.671875 1431.890625 1235.53125 1424.859375 1247.230469 1424.769531 L 1249.480469 1424.769531 C 1261.191406 1424.859375 1267.039062 1431.890625 1267.039062 1445.871094 Z M 1255.46875 1405.351562 L 1241.25 1405.351562 C 1219.679688 1405.351562 1208.898438 1420.570312 1208.898438 1451.011719 C 1208.898438 1481.449219 1219.679688 1496.679688 1241.25 1496.679688 L 1255.46875 1496.679688 C 1277.03125 1496.679688 1287.820312 1481.449219 1287.820312 1451.011719 C 1287.820312 1420.570312 1277.03125 1405.351562 1255.46875 1405.351562 "/>
<path fill-rule="nonzero" fill="rgb(13.729858%, 12.159729%, 12.548828%)" fill-opacity="1" d="M 1294.25 1451.011719 C 1294.25 1481.03125 1305.910156 1496.03125 1329.238281 1496.03125 L 1359.46875 1496.03125 L 1359.46875 1452.429688 L 1339.078125 1452.429688 L 1339.078125 1476.800781 L 1337.398438 1476.800781 C 1322.480469 1476.800781 1315.019531 1469.921875 1315.019531 1456.160156 L 1315.019531 1446.511719 C 1315.019531 1432.449219 1322.78125 1425.410156 1338.308594 1425.410156 L 1359.46875 1425.410156 L 1359.46875 1405.988281 L 1329.238281 1405.988281 C 1305.910156 1405.988281 1294.25 1421 1294.25 1451.011719 "/>
<path fill-rule="nonzero" fill="rgb(13.729858%, 12.159729%, 12.548828%)" fill-opacity="1" d="M 1427.25 1456.800781 C 1427.25 1470.558594 1421.210938 1477.441406 1409.121094 1477.441406 L 1408.019531 1477.441406 C 1395.929688 1477.441406 1389.890625 1470.558594 1389.890625 1456.800781 L 1389.890625 1445.871094 C 1389.890625 1431.890625 1395.738281 1424.859375 1407.449219 1424.769531 L 1409.699219 1424.769531 C 1421.398438 1424.859375 1427.25 1431.890625 1427.25 1445.871094 Z M 1469.289062 1394.570312 C 1469.398438 1387.019531 1467.5 1379.601562 1465.621094 1372.289062 C 1466.578125 1381.75 1466.429688 1391.578125 1460.589844 1399.089844 C 1456.550781 1404.28125 1450.269531 1407.371094 1443.839844 1408.800781 C 1440.300781 1409.589844 1436.691406 1409.921875 1433.058594 1410.050781 C 1428.371094 1406.929688 1422.578125 1405.351562 1415.679688 1405.351562 L 1401.460938 1405.351562 C 1379.898438 1405.351562 1369.109375 1420.570312 1369.109375 1451.011719 C 1369.109375 1481.449219 1379.898438 1496.679688 1401.460938 1496.679688 L 1415.679688 1496.679688 C 1437.25 1496.679688 1448.03125 1481.449219 1448.03125 1451.011719 C 1448.03125 1439.339844 1446.429688 1429.929688 1443.261719 1422.738281 C 1449.960938 1421.640625 1456.46875 1419.710938 1461.320312 1415.140625 C 1466.820312 1409.949219 1469.179688 1402.121094 1469.289062 1394.570312 "/>
<path fill-rule="nonzero" fill="rgb(13.729858%, 12.159729%, 12.548828%)" fill-opacity="1" d="M 778.285156 1458.550781 L 760.230469 1411.011719 C 759.5 1409.328125 758.320312 1407.980469 756.691406 1406.949219 C 755.0625 1405.96875 753.324219 1405.46875 751.480469 1405.46875 C 749.59375 1405.46875 747.878906 1405.96875 746.335938 1406.949219 C 744.792969 1407.980469 743.636719 1409.328125 742.863281 1411.011719 L 711.027344 1495.96875 L 731.671875 1495.96875 L 751.546875 1444 L 760.164062 1466.128906 C 760.011719 1466.238281 759.851562 1466.351562 759.699219 1466.460938 C 755.40625 1469.691406 751.738281 1473.71875 748.859375 1478.261719 C 753.011719 1475.371094 757.355469 1472.769531 761.824219 1470.398438 L 771.804688 1496.03125 L 792.515625 1496.03125 L 779.820312 1462.601562 C 784.550781 1460.96875 789.367188 1459.589844 794.261719 1458.539062 C 788.96875 1457.640625 783.539062 1457.640625 778.285156 1458.550781 "/>
<path fill-rule="nonzero" fill="rgb(13.729858%, 12.159729%, 12.548828%)" fill-opacity="1" d="M 1017.691406 1459.109375 L 999.421875 1411.011719 C 998.691406 1409.328125 997.515625 1407.980469 995.886719 1406.949219 C 994.253906 1405.96875 992.519531 1405.46875 990.675781 1405.46875 C 988.789062 1405.46875 987.074219 1405.96875 985.527344 1406.949219 C 983.984375 1407.980469 982.828125 1409.328125 982.058594 1411.011719 L 950.21875 1495.96875 L 970.863281 1495.96875 L 990.738281 1444 L 1000.050781 1467.921875 C 996.519531 1470.878906 993.4375 1474.371094 990.964844 1478.261719 C 994.367188 1475.890625 997.890625 1473.691406 1001.511719 1471.671875 L 1011 1496.03125 L 1031.710938 1496.03125 L 1019.351562 1463.5 C 1024.898438 1461.449219 1030.578125 1459.78125 1036.371094 1458.539062 C 1030.160156 1457.480469 1023.769531 1457.679688 1017.691406 1459.109375 "/>
<path fill-rule="nonzero" fill="rgb(27.436829%, 28.636169%, 43.443298%)" fill-opacity="1" d="M 888.40625 1538.011719 C 887.160156 1537.070312 885.085938 1536.441406 882.1875 1536.128906 C 881.296875 1536.039062 880.089844 1535.921875 878.570312 1535.769531 C 873.019531 1535.21875 870.242188 1534.191406 870.242188 1532.671875 L 870.242188 1529.910156 C 870.242188 1528.578125 870.683594 1527.660156 871.5625 1527.128906 C 872.441406 1526.609375 873.992188 1526.351562 876.214844 1526.351562 L 878.980469 1526.351562 C 881.011719 1526.351562 882.433594 1526.621094 883.246094 1527.160156 C 884.058594 1527.699219 884.464844 1528.679688 884.464844 1530.078125 L 884.464844 1530.878906 L 889.785156 1530.878906 L 889.785156 1529.691406 C 889.785156 1527.109375 889.039062 1525.339844 887.554688 1524.378906 C 886.0625 1523.429688 883.367188 1522.949219 879.464844 1522.949219 L 875.726562 1522.949219 C 871.964844 1522.949219 869.160156 1523.488281 867.316406 1524.558594 C 865.476562 1525.640625 864.554688 1527.289062 864.554688 1529.519531 L 864.554688 1533.371094 C 864.554688 1535.019531 865.121094 1536.210938 866.261719 1536.929688 C 867.398438 1537.648438 870.417969 1538.289062 875.320312 1538.871094 C 875.78125 1538.921875 876.433594 1538.988281 877.273438 1539.089844 C 882.175781 1539.621094 884.628906 1540.898438 884.628906 1542.929688 L 884.628906 1545.640625 C 884.628906 1546.980469 884.179688 1547.929688 883.285156 1548.46875 C 882.390625 1549.011719 880.835938 1549.289062 878.613281 1549.289062 L 874.875 1549.289062 C 872.734375 1549.289062 871.285156 1549.011719 870.527344 1548.460938 C 869.769531 1547.898438 869.390625 1546.671875 869.390625 1544.75 L 869.390625 1542.980469 L 864.066406 1542.980469 L 864.066406 1545.941406 C 864.066406 1548.5 864.8125 1550.261719 866.300781 1551.21875 C 867.789062 1552.179688 870.484375 1552.660156 874.386719 1552.660156 L 879.140625 1552.660156 C 882.90625 1552.660156 885.703125 1552.121094 887.53125 1551.039062 C 889.359375 1549.960938 890.273438 1548.320312 890.273438 1546.109375 L 890.273438 1542.269531 C 890.273438 1540.371094 889.652344 1538.949219 888.40625 1538.011719 "/>
<path fill-rule="nonzero" fill="rgb(27.436829%, 28.636169%, 43.443298%)" fill-opacity="1" d="M 918.066406 1552.160156 L 923.472656 1552.160156 L 923.472656 1510.398438 L 918.066406 1510.398438 L 918.066406 1552.160156 "/>
<path fill-rule="nonzero" fill="rgb(27.436829%, 28.636169%, 43.443298%)" fill-opacity="1" d="M 971.761719 1541.238281 C 971.761719 1544.488281 971.199219 1546.601562 970.074219 1547.570312 C 968.953125 1548.550781 966.789062 1549.039062 963.597656 1549.039062 C 960.398438 1549.039062 958.246094 1548.558594 957.136719 1547.601562 C 956.023438 1546.640625 955.46875 1544.519531 955.46875 1541.238281 L 955.46875 1534.390625 C 955.46875 1531.160156 956.023438 1529.058594 957.136719 1528.089844 C 958.246094 1527.109375 960.398438 1526.621094 963.597656 1526.621094 C 966.816406 1526.621094 968.984375 1527.101562 970.097656 1528.058594 C 971.207031 1529.019531 971.761719 1531.128906 971.761719 1534.390625 Z M 974.445312 1525.460938 C 972.410156 1523.789062 968.824219 1522.949219 963.675781 1522.949219 C 958.476562 1522.949219 954.847656 1523.789062 952.785156 1525.480469 C 950.730469 1527.160156 949.699219 1530.128906 949.699219 1534.390625 L 949.699219 1541.191406 C 949.699219 1545.441406 950.734375 1548.421875 952.808594 1550.109375 C 954.878906 1551.808594 958.476562 1552.660156 963.597656 1552.660156 C 968.769531 1552.660156 972.378906 1551.808594 974.425781 1550.128906 C 976.46875 1548.441406 977.492188 1545.460938 977.492188 1541.191406 L 977.492188 1534.390625 C 977.492188 1530.109375 976.476562 1527.140625 974.445312 1525.460938 "/>
<path fill-rule="nonzero" fill="rgb(27.436829%, 28.636169%, 43.443298%)" fill-opacity="1" d="M 1025.601562 1538.449219 C 1025.601562 1541.929688 1024.949219 1544.308594 1023.671875 1545.601562 C 1022.378906 1546.878906 1020.171875 1547.519531 1017.019531 1547.519531 C 1014.398438 1547.519531 1012.550781 1546.878906 1011.480469 1545.601562 C 1010.410156 1544.308594 1009.871094 1542 1009.871094 1538.640625 L 1009.871094 1535.359375 C 1009.871094 1531.980469 1010.410156 1529.660156 1011.480469 1528.378906 C 1012.550781 1527.101562 1014.398438 1526.460938 1017.019531 1526.460938 C 1020.171875 1526.460938 1022.378906 1527.101562 1023.671875 1528.378906 C 1024.949219 1529.660156 1025.601562 1532.039062 1025.601562 1535.519531 Z M 1026 1526.871094 C 1024.648438 1525.53125 1023.109375 1524.539062 1021.390625 1523.898438 C 1019.671875 1523.261719 1017.660156 1522.949219 1015.359375 1522.949219 C 1011.269531 1522.949219 1008.359375 1523.929688 1006.621094 1525.890625 C 1004.890625 1527.851562 1004.019531 1531.230469 1004.019531 1536.019531 L 1004.019531 1538.808594 C 1004.019531 1543.179688 1004.929688 1546.308594 1006.738281 1548.191406 C 1008.558594 1550.078125 1011.511719 1551.03125 1015.601562 1551.03125 C 1017.769531 1551.03125 1019.691406 1550.730469 1021.351562 1550.128906 C 1023.019531 1549.53125 1024.429688 1548.621094 1025.601562 1547.410156 L 1025.601562 1552.160156 C 1025.601562 1555.289062 1025.03125 1557.28125 1023.890625 1558.128906 C 1022.75 1558.980469 1020.601562 1559.398438 1017.429688 1559.398438 C 1014.96875 1559.398438 1013.179688 1559.128906 1012.089844 1558.601562 C 1010.988281 1558.058594 1010.441406 1557.199219 1010.441406 1556 C 1010.441406 1555.929688 1010.460938 1555.820312 1010.480469 1555.671875 C 1010.511719 1555.519531 1010.519531 1555.410156 1010.519531 1555.339844 L 1004.960938 1555.339844 L 1004.960938 1556.800781 C 1004.960938 1558.789062 1006 1560.28125 1008.078125 1561.269531 C 1010.171875 1562.25 1013.308594 1562.738281 1017.511719 1562.738281 C 1022.441406 1562.738281 1025.921875 1562.03125 1027.949219 1560.589844 C 1029.988281 1559.148438 1031 1556.679688 1031 1553.179688 L 1031 1523.46875 L 1026 1523.46875 L 1026 1526.871094 "/>
<path fill-rule="nonzero" fill="rgb(27.436829%, 28.636169%, 43.443298%)" fill-opacity="1" d="M 1076.289062 1547.96875 C 1075.039062 1548.878906 1072.910156 1549.339844 1069.910156 1549.339844 C 1067.441406 1549.339844 1065.671875 1548.921875 1064.609375 1548.078125 C 1063.53125 1547.238281 1063 1545.828125 1063 1543.839844 C 1063 1541.371094 1063.511719 1539.730469 1064.539062 1538.910156 C 1065.570312 1538.089844 1067.589844 1537.679688 1070.601562 1537.679688 C 1073.550781 1537.679688 1075.550781 1538.050781 1076.589844 1538.808594 C 1077.628906 1539.570312 1078.160156 1541.03125 1078.160156 1543.199219 C 1078.160156 1545.46875 1077.53125 1547.058594 1076.289062 1547.96875 Z M 1080.660156 1524.648438 C 1078.878906 1523.441406 1075.660156 1522.839844 1071 1522.839844 C 1066.699219 1522.839844 1063.550781 1523.410156 1061.578125 1524.550781 C 1059.601562 1525.691406 1058.609375 1527.5 1058.609375 1529.96875 L 1058.609375 1531.269531 L 1064.179688 1531.269531 L 1064.179688 1529.910156 C 1064.179688 1528.621094 1064.679688 1527.699219 1065.679688 1527.128906 C 1066.679688 1526.570312 1068.378906 1526.289062 1070.761719 1526.289062 C 1073.660156 1526.289062 1075.589844 1526.671875 1076.550781 1527.421875 C 1077.511719 1528.179688 1077.988281 1529.78125 1077.988281 1532.230469 L 1077.988281 1536.710938 C 1077.019531 1535.859375 1075.761719 1535.238281 1074.238281 1534.828125 C 1072.699219 1534.429688 1070.800781 1534.21875 1068.53125 1534.21875 C 1064.871094 1534.21875 1062.089844 1534.839844 1060.199219 1536.089844 C 1058.300781 1537.328125 1057.351562 1539.160156 1057.351562 1541.570312 L 1057.351562 1545.421875 C 1057.351562 1547.878906 1058.21875 1549.71875 1059.949219 1550.921875 C 1061.691406 1552.109375 1064.308594 1552.710938 1067.828125 1552.710938 C 1070.519531 1552.710938 1072.640625 1552.46875 1074.210938 1551.980469 C 1075.789062 1551.488281 1077.039062 1550.691406 1077.988281 1549.558594 L 1077.988281 1552.160156 L 1083.320312 1552.160156 L 1083.320312 1531.269531 C 1083.320312 1528.058594 1082.429688 1525.851562 1080.660156 1524.648438 "/>
<path fill-rule="nonzero" fill="rgb(27.436829%, 28.636169%, 43.443298%)" fill-opacity="1" d="M 1124.878906 1522.949219 C 1122.46875 1522.949219 1120.410156 1523.261719 1118.710938 1523.898438 C 1117 1524.539062 1115.621094 1525.5 1114.558594 1526.789062 L 1114.558594 1523.46875 L 1109.558594 1523.46875 L 1109.558594 1552.160156 L 1114.96875 1552.160156 L 1114.96875 1536.070312 C 1114.96875 1532.460938 1115.640625 1529.929688 1116.980469 1528.46875 C 1118.320312 1527.019531 1120.558594 1526.289062 1123.699219 1526.289062 C 1126.199219 1526.289062 1127.960938 1526.851562 1128.988281 1527.960938 C 1130.011719 1529.078125 1130.53125 1531.070312 1130.53125 1533.949219 L 1130.53125 1552.160156 L 1135.929688 1552.160156 L 1135.929688 1532.921875 C 1135.929688 1529.351562 1135.070312 1526.789062 1133.351562 1525.25 C 1131.628906 1523.71875 1128.808594 1522.949219 1124.878906 1522.949219 "/>
<path fill-rule="nonzero" fill="rgb(27.436829%, 28.636169%, 43.443298%)" fill-opacity="1" d="M 757.8125 1524.550781 C 674.945312 1527.851562 601.484375 1535.878906 539.1875 1545.328125 C 625.460938 1535.46875 719.378906 1529.039062 820.019531 1528.300781 C 833.191406 1528.199219 846.226562 1528.199219 859.125 1528.300781 C 859.914062 1526.558594 860.703125 1524.820312 861.492188 1523.078125 C 829.007812 1522.710938 794.355469 1523.101562 757.8125 1524.550781 "/>
<path fill-rule="nonzero" fill="rgb(27.436829%, 28.636169%, 43.443298%)" fill-opacity="1" d="M 1242.191406 1524.550781 C 1205.648438 1523.101562 1170.988281 1522.710938 1138.511719 1523.078125 C 1139.300781 1524.820312 1140.089844 1526.558594 1140.878906 1528.300781 C 1153.769531 1528.199219 1166.808594 1528.199219 1179.980469 1528.300781 C 1280.621094 1529.039062 1374.539062 1535.46875 1460.808594 1545.328125 C 1398.511719 1535.878906 1325.050781 1527.851562 1242.191406 1524.550781 "/>
</svg>
