<?xml version="1.0" encoding="UTF-8"?>
<svg xmlns="http://www.w3.org/2000/svg" xmlns:xlink="http://www.w3.org/1999/xlink" width="2000" height="2000" viewBox="0 0 2000 2000">
<defs>
<clipPath id="clip-0">
<path clip-rule="nonzero" d="M 635 520 L 1365 520 L 1365 1250 L 635 1250 Z M 635 520 "/>
</clipPath>
<clipPath id="clip-1">
<path clip-rule="nonzero" d="M 809.753906 999.058594 C 812.011719 968.148438 812.871094 937.03125 817.109375 906.390625 C 823.28125 861.710938 837.980469 819.660156 863.914062 782.179688 C 879.664062 759.429688 899.011719 740.601562 923.972656 727.839844 C 957.539062 803.199219 959.011719 805.121094 1020.730469 857.929688 C 1022.410156 859.359375 1023.621094 862.808594 1023.21875 864.988281 C 1020.800781 878.109375 1018.460938 891.238281 1016.109375 904.371094 C 1021.050781 898.140625 1028.171875 893.710938 1036.378906 892.359375 C 1038.109375 892.078125 1039.851562 891.828125 1041.648438 891.828125 C 1059.671875 891.828125 1074.28125 906.441406 1074.28125 924.449219 C 1074.28125 942.46875 1059.671875 957.070312 1041.648438 957.070312 C 1039.761719 957.070312 1037.929688 956.828125 1036.121094 956.519531 C 1024.078125 954.449219 1014.371094 945.800781 1010.699219 934.410156 C 1006.421875 957.679688 1001.941406 980.898438 996.769531 1003.96875 C 994.789062 1012.800781 992.382812 1021.46875 989.476562 1029.890625 C 981.339844 1063.609375 962.523438 1094.929688 935.917969 1118.308594 C 906.371094 1144.269531 868.363281 1161.898438 828.40625 1164.621094 C 831.570312 1124.261719 835.070312 1083.839844 838.234375 1043.46875 C 846.8125 1039.75 854.769531 1034.730469 861.8125 1028.730469 C 867.71875 1004.691406 875.496094 981.070312 883.398438 957.5 C 887.261719 945.96875 893.414062 942.171875 904.734375 941.179688 C 923.460938 939.539062 941.105469 933.78125 956.117188 921.789062 C 967.351562 912.820312 974.023438 901.121094 977.792969 885.648438 C 964.628906 888.761719 951.035156 892.261719 937.066406 896.199219 C 920.355469 900.921875 904.425781 905.890625 889.308594 911 C 887.386719 910.699219 885.472656 910.398438 883.554688 910.101562 C 872.59375 922.410156 866.417969 933.628906 862.835938 941.421875 C 856.421875 955.371094 855.742188 960.800781 848.222656 977.628906 C 840.96875 993.859375 829.445312 1005.238281 810.457031 1008.398438 C 810.160156 1004.78125 809.546875 1001.890625 809.753906 999.058594 Z M 1034.351562 966.761719 C 1036.738281 967.171875 1039.148438 967.5 1041.648438 967.5 C 1065.429688 967.5 1084.699219 948.230469 1084.699219 924.449219 C 1084.699219 900.679688 1065.429688 881.410156 1041.648438 881.410156 C 1039.269531 881.410156 1036.96875 881.730469 1034.691406 882.109375 C 1035.910156 875.578125 1037.109375 869.039062 1037.789062 862.460938 C 1038.109375 859.339844 1036.421875 855.011719 1034.121094 852.839844 C 1027.988281 847.011719 1020.851562 842.261719 1014.421875 836.71875 C 981.53125 808.328125 954.746094 775.578125 941.1875 733.449219 C 937.226562 721.140625 937.132812 720.960938 949.324219 717.628906 C 995.347656 705.050781 1039.828125 712.21875 1083.269531 729.058594 C 1129.640625 747.019531 1159.398438 780.179688 1172.378906 828.429688 C 1180.269531 857.769531 1182.089844 887.558594 1180.460938 917.710938 C 1178.449219 954.859375 1177.429688 991.789062 1203.738281 1023.25 C 1171.769531 1034.539062 1140.558594 1038.488281 1111.410156 1019.898438 C 1085.039062 1003.078125 1059.730469 984.640625 1034.351562 966.761719 Z M 635.757812 885.058594 C 635.757812 1086.230469 798.835938 1249.300781 1000 1249.300781 C 1201.171875 1249.300781 1364.238281 1086.230469 1364.238281 885.058594 C 1364.238281 683.898438 1201.171875 520.820312 1000 520.820312 C 946.285156 520.820312 895.289062 532.460938 849.382812 553.328125 C 896.351562 539.570312 953.539062 531.960938 1017.101562 542.410156 C 1043.488281 546.75 1171.28125 567.761719 1248.148438 676.589844 C 1287.308594 732.058594 1299.589844 790.96875 1303.640625 816.828125 C 1310.910156 863.371094 1307.160156 902.648438 1302.628906 928.820312 C 1301.480469 921.960938 1296.648438 898.289062 1275.390625 881.410156 C 1270.011719 877.140625 1244.289062 857.96875 1215.859375 867.28125 C 1204.449219 871.019531 1196.789062 877.96875 1192.660156 882.410156 C 1193.078125 872.230469 1195.101562 791.601562 1131.109375 737.128906 C 1071.949219 686.761719 999.820312 695.78125 983.8125 697.78125 C 963.554688 700.308594 947.28125 705.621094 936.390625 709.890625 C 932.65625 696.558594 924.359375 673.820312 905.113281 652.378906 C 867.847656 610.871094 817.546875 605.460938 801.195312 603.949219 C 789.386719 602.859375 778.3125 603.109375 768.117188 604.160156 C 687.277344 670.960938 635.757812 771.988281 635.757812 885.058594 Z M 635.757812 885.058594 "/>
</clipPath>
<clipPath id="clip-2">
<path clip-rule="nonzero" d="M 809.753906 999.058594 C 812.011719 968.148438 812.871094 937.03125 817.109375 906.390625 C 823.28125 861.710938 837.980469 819.660156 863.914062 782.179688 C 879.664062 759.429688 899.011719 740.601562 923.972656 727.839844 C 957.539062 803.199219 959.011719 805.121094 1020.730469 857.929688 C 1022.410156 859.359375 1023.621094 862.808594 1023.21875 864.988281 C 1020.800781 878.109375 1018.460938 891.238281 1016.109375 904.371094 C 1021.050781 898.140625 1028.171875 893.710938 1036.378906 892.359375 C 1038.109375 892.078125 1039.851562 891.828125 1041.648438 891.828125 C 1059.671875 891.828125 1074.28125 906.441406 1074.28125 924.449219 C 1074.28125 942.46875 1059.671875 957.070312 1041.648438 957.070312 C 1039.761719 957.070312 1037.929688 956.828125 1036.121094 956.519531 C 1024.078125 954.449219 1014.371094 945.800781 1010.699219 934.410156 C 1006.421875 957.679688 1001.941406 980.898438 996.769531 1003.96875 C 994.789062 1012.800781 992.382812 1021.46875 989.476562 1029.890625 C 981.339844 1063.609375 962.523438 1094.929688 935.917969 1118.308594 C 906.371094 1144.269531 868.363281 1161.898438 828.40625 1164.621094 C 831.570312 1124.261719 835.070312 1083.839844 838.234375 1043.46875 C 846.8125 1039.75 854.769531 1034.730469 861.8125 1028.730469 C 867.71875 1004.691406 875.496094 981.070312 883.398438 957.5 C 887.261719 945.96875 893.414062 942.171875 904.734375 941.179688 C 923.460938 939.539062 941.105469 933.78125 956.117188 921.789062 C 967.351562 912.820312 974.023438 901.121094 977.792969 885.648438 C 964.628906 888.761719 951.035156 892.261719 937.066406 896.199219 C 920.355469 900.921875 904.425781 905.890625 889.308594 911 C 887.386719 910.699219 885.472656 910.398438 883.554688 910.101562 C 872.59375 922.410156 866.417969 933.628906 862.835938 941.421875 C 856.421875 955.371094 855.742188 960.800781 848.222656 977.628906 C 840.96875 993.859375 829.445312 1005.238281 810.457031 1008.398438 C 810.160156 1004.78125 809.546875 1001.890625 809.753906 999.058594 Z M 1034.351562 966.761719 C 1036.738281 967.171875 1039.148438 967.5 1041.648438 967.5 C 1065.429688 967.5 1084.699219 948.230469 1084.699219 924.449219 C 1084.699219 900.679688 1065.429688 881.410156 1041.648438 881.410156 C 1039.269531 881.410156 1036.96875 881.730469 1034.691406 882.109375 C 1035.910156 875.578125 1037.109375 869.039062 1037.789062 862.460938 C 1038.109375 859.339844 1036.421875 855.011719 1034.121094 852.839844 C 1027.988281 847.011719 1020.851562 842.261719 1014.421875 836.71875 C 981.53125 808.328125 954.746094 775.578125 941.1875 733.449219 C 937.226562 721.140625 937.132812 720.960938 949.324219 717.628906 C 995.347656 705.050781 1039.828125 712.21875 1083.269531 729.058594 C 1129.640625 747.019531 1159.398438 780.179688 1172.378906 828.429688 C 1180.269531 857.769531 1182.089844 887.558594 1180.460938 917.710938 C 1178.449219 954.859375 1177.429688 991.789062 1203.738281 1023.25 C 1171.769531 1034.539062 1140.558594 1038.488281 1111.410156 1019.898438 C 1085.039062 1003.078125 1059.730469 984.640625 1034.351562 966.761719 Z M 635.757812 885.058594 C 635.757812 1086.230469 798.835938 1249.300781 1000 1249.300781 C 1201.171875 1249.300781 1364.238281 1086.230469 1364.238281 885.058594 C 1364.238281 683.898438 1201.171875 520.820312 1000 520.820312 C 946.285156 520.820312 895.289062 532.460938 849.382812 553.328125 C 896.351562 539.570312 953.539062 531.960938 1017.101562 542.410156 C 1043.488281 546.75 1171.28125 567.761719 1248.148438 676.589844 C 1287.308594 732.058594 1299.589844 790.96875 1303.640625 816.828125 C 1310.910156 863.371094 1307.160156 902.648438 1302.628906 928.820312 C 1301.480469 921.960938 1296.648438 898.289062 1275.390625 881.410156 C 1270.011719 877.140625 1244.289062 857.96875 1215.859375 867.28125 C 1204.449219 871.019531 1196.789062 877.96875 1192.660156 882.410156 C 1193.078125 872.230469 1195.101562 791.601562 1131.109375 737.128906 C 1071.949219 686.761719 999.820312 695.78125 983.8125 697.78125 C 963.554688 700.308594 947.28125 705.621094 936.390625 709.890625 C 932.65625 696.558594 924.359375 673.820312 905.113281 652.378906 C 867.847656 610.871094 817.546875 605.460938 801.195312 603.949219 C 789.386719 602.859375 778.3125 603.109375 768.117188 604.160156 C 687.277344 670.960938 635.757812 771.988281 635.757812 885.058594 "/>
</clipPath>
<linearGradient id="linear-pattern-0" gradientUnits="userSpaceOnUse" x1="0.107645" y1="0" x2="0.997273" y2="0" gradientTransform="matrix(-801.688, 835.339, -835.339, -801.688, 1442.9, 423.57)">
<stop offset="0" stop-color="rgb(73.529053%, 47.743225%, 12.306213%)" stop-opacity="1"/>
<stop offset="0.00390625" stop-color="rgb(73.854065%, 48.00415%, 12.22229%)" stop-opacity="1"/>
<stop offset="0.0078125" stop-color="rgb(74.180603%, 48.265076%, 12.135315%)" stop-opacity="1"/>
<stop offset="0.0117188" stop-color="rgb(74.508667%, 48.527527%, 12.04834%)" stop-opacity="1"/>
<stop offset="0.015625" stop-color="rgb(74.835205%, 48.789978%, 11.961365%)" stop-opacity="1"/>
<stop offset="0.0195312" stop-color="rgb(75.164795%, 49.055481%, 11.872864%)" stop-opacity="1"/>
<stop offset="0.0234375" stop-color="rgb(75.494385%, 49.319458%, 11.782837%)" stop-opacity="1"/>
<stop offset="0.0273438" stop-color="rgb(75.8255%, 49.586487%, 11.69281%)" stop-opacity="1"/>
<stop offset="0.03125" stop-color="rgb(76.158142%, 49.853516%, 11.602783%)" stop-opacity="1"/>
<stop offset="0.0351562" stop-color="rgb(76.490784%, 50.12207%, 11.51123%)" stop-opacity="1"/>
<stop offset="0.0390625" stop-color="rgb(76.824951%, 50.390625%, 11.418152%)" stop-opacity="1"/>
<stop offset="0.0429688" stop-color="rgb(77.159119%, 50.662231%, 11.325073%)" stop-opacity="1"/>
<stop offset="0.046875" stop-color="rgb(77.496338%, 50.932312%, 11.230469%)" stop-opacity="1"/>
<stop offset="0.0507812" stop-color="rgb(77.833557%, 51.205444%, 11.135864%)" stop-opacity="1"/>
<stop offset="0.0546875" stop-color="rgb(78.16925%, 51.477051%, 11.039734%)" stop-opacity="1"/>
<stop offset="0.0585938" stop-color="rgb(78.509521%, 51.753235%, 10.943604%)" stop-opacity="1"/>
<stop offset="0.0625" stop-color="rgb(78.848267%, 52.027893%, 10.845947%)" stop-opacity="1"/>
<stop offset="0.0664063" stop-color="rgb(79.190063%, 52.304077%, 10.748291%)" stop-opacity="1"/>
<stop offset="0.0703125" stop-color="rgb(79.53186%, 52.580261%, 10.649109%)" stop-opacity="1"/>
<stop offset="0.0742188" stop-color="rgb(79.875183%, 52.859497%, 10.548401%)" stop-opacity="1"/>
<stop offset="0.078125" stop-color="rgb(80.21698%, 53.138733%, 10.447693%)" stop-opacity="1"/>
<stop offset="0.0820313" stop-color="rgb(80.561829%, 53.419495%, 10.345459%)" stop-opacity="1"/>
<stop offset="0.0859375" stop-color="rgb(80.908203%, 53.700256%, 10.241699%)" stop-opacity="1"/>
<stop offset="0.0898438" stop-color="rgb(81.254578%, 53.982544%, 10.137939%)" stop-opacity="1"/>
<stop offset="0.09375" stop-color="rgb(81.600952%, 54.264832%, 10.03418%)" stop-opacity="1"/>
<stop offset="0.0976563" stop-color="rgb(81.950378%, 54.550171%, 9.928894%)" stop-opacity="1"/>
<stop offset="0.101563" stop-color="rgb(82.298279%, 54.833984%, 9.822083%)" stop-opacity="1"/>
<stop offset="0.105469" stop-color="rgb(82.649231%, 55.12085%, 9.715271%)" stop-opacity="1"/>
<stop offset="0.109375" stop-color="rgb(83.001709%, 55.407715%, 9.606934%)" stop-opacity="1"/>
<stop offset="0.113281" stop-color="rgb(83.354187%, 55.696106%, 9.498596%)" stop-opacity="1"/>
<stop offset="0.117188" stop-color="rgb(83.706665%, 55.986023%, 9.388733%)" stop-opacity="1"/>
<stop offset="0.121094" stop-color="rgb(84.062195%, 56.277466%, 9.277344%)" stop-opacity="1"/>
<stop offset="0.125" stop-color="rgb(84.417725%, 56.567383%, 9.165955%)" stop-opacity="1"/>
<stop offset="0.128906" stop-color="rgb(84.77478%, 56.860352%, 9.05304%)" stop-opacity="1"/>
<stop offset="0.132813" stop-color="rgb(85.13031%, 57.15332%, 8.940125%)" stop-opacity="1"/>
<stop offset="0.136719" stop-color="rgb(85.488892%, 57.449341%, 8.825684%)" stop-opacity="1"/>
<stop offset="0.140625" stop-color="rgb(85.848999%, 57.743835%, 8.709717%)" stop-opacity="1"/>
<stop offset="0.144531" stop-color="rgb(86.210632%, 58.039856%, 8.592224%)" stop-opacity="1"/>
<stop offset="0.148438" stop-color="rgb(86.57074%, 58.337402%, 8.476257%)" stop-opacity="1"/>
<stop offset="0.152344" stop-color="rgb(86.933899%, 58.636475%, 8.357239%)" stop-opacity="1"/>
<stop offset="0.15625" stop-color="rgb(87.295532%, 58.937073%, 8.239746%)" stop-opacity="1"/>
<stop offset="0.160156" stop-color="rgb(87.660217%, 59.237671%, 8.119202%)" stop-opacity="1"/>
<stop offset="0.164063" stop-color="rgb(88.026428%, 59.538269%, 7.998657%)" stop-opacity="1"/>
<stop offset="0.167969" stop-color="rgb(88.394165%, 59.843445%, 7.876587%)" stop-opacity="1"/>
<stop offset="0.171875" stop-color="rgb(88.761902%, 60.145569%, 7.754517%)" stop-opacity="1"/>
<stop offset="0.175781" stop-color="rgb(89.129639%, 60.450745%, 7.629395%)" stop-opacity="1"/>
<stop offset="0.179687" stop-color="rgb(89.500427%, 60.75592%, 7.505798%)" stop-opacity="1"/>
<stop offset="0.183594" stop-color="rgb(89.871216%, 61.064148%, 7.37915%)" stop-opacity="1"/>
<stop offset="0.1875" stop-color="rgb(90.242004%, 61.37085%, 7.254028%)" stop-opacity="1"/>
<stop offset="0.191406" stop-color="rgb(90.614319%, 61.680603%, 7.125854%)" stop-opacity="1"/>
<stop offset="0.195313" stop-color="rgb(90.988159%, 61.991882%, 6.997681%)" stop-opacity="1"/>
<stop offset="0.199219" stop-color="rgb(91.363525%, 62.303162%, 6.867981%)" stop-opacity="1"/>
<stop offset="0.203125" stop-color="rgb(91.738892%, 62.614441%, 6.736755%)" stop-opacity="1"/>
<stop offset="0.207031" stop-color="rgb(92.115784%, 62.928772%, 6.60553%)" stop-opacity="1"/>
<stop offset="0.210937" stop-color="rgb(92.492676%, 63.241577%, 6.472778%)" stop-opacity="1"/>
<stop offset="0.214844" stop-color="rgb(92.87262%, 63.557434%, 6.340027%)" stop-opacity="1"/>
<stop offset="0.21875" stop-color="rgb(93.252563%, 63.873291%, 6.20575%)" stop-opacity="1"/>
<stop offset="0.222656" stop-color="rgb(93.634033%, 64.1922%, 6.069946%)" stop-opacity="1"/>
<stop offset="0.226563" stop-color="rgb(94.015503%, 64.509583%, 5.934143%)" stop-opacity="1"/>
<stop offset="0.230469" stop-color="rgb(94.398499%, 64.830017%, 5.796814%)" stop-opacity="1"/>
<stop offset="0.234375" stop-color="rgb(94.78302%, 65.151978%, 5.657959%)" stop-opacity="1"/>
<stop offset="0.238281" stop-color="rgb(95.167542%, 65.473938%, 5.519104%)" stop-opacity="1"/>
<stop offset="0.242188" stop-color="rgb(95.553589%, 65.795898%, 5.378723%)" stop-opacity="1"/>
<stop offset="0.246094" stop-color="rgb(95.941162%, 66.120911%, 5.236816%)" stop-opacity="1"/>
<stop offset="0.25" stop-color="rgb(96.328735%, 66.444397%, 5.09491%)" stop-opacity="1"/>
<stop offset="0.253906" stop-color="rgb(96.717834%, 66.770935%, 4.951477%)" stop-opacity="1"/>
<stop offset="0.257813" stop-color="rgb(97.108459%, 67.097473%, 4.806519%)" stop-opacity="1"/>
<stop offset="0.261719" stop-color="rgb(97.088623%, 66.886902%, 5.010986%)" stop-opacity="1"/>
<stop offset="0.265625" stop-color="rgb(97.067261%, 66.674805%, 5.215454%)" stop-opacity="1"/>
<stop offset="0.269531" stop-color="rgb(97.041321%, 66.459656%, 5.419922%)" stop-opacity="1"/>
<stop offset="0.273438" stop-color="rgb(97.015381%, 66.242981%, 5.62439%)" stop-opacity="1"/>
<stop offset="0.277344" stop-color="rgb(96.990967%, 66.029358%, 5.828857%)" stop-opacity="1"/>
<stop offset="0.28125" stop-color="rgb(96.966553%, 65.812683%, 6.030273%)" stop-opacity="1"/>
<stop offset="0.285156" stop-color="rgb(96.942139%, 65.59906%, 6.230164%)" stop-opacity="1"/>
<stop offset="0.289062" stop-color="rgb(96.916199%, 65.383911%, 6.428528%)" stop-opacity="1"/>
<stop offset="0.292969" stop-color="rgb(96.891785%, 65.171814%, 6.626892%)" stop-opacity="1"/>
<stop offset="0.296875" stop-color="rgb(96.867371%, 64.958191%, 6.82373%)" stop-opacity="1"/>
<stop offset="0.300781" stop-color="rgb(96.842957%, 64.74762%, 7.019043%)" stop-opacity="1"/>
<stop offset="0.304688" stop-color="rgb(96.818542%, 64.535522%, 7.211304%)" stop-opacity="1"/>
<stop offset="0.308594" stop-color="rgb(96.794128%, 64.326477%, 7.40509%)" stop-opacity="1"/>
<stop offset="0.3125" stop-color="rgb(96.768188%, 64.115906%, 7.595825%)" stop-opacity="1"/>
<stop offset="0.316406" stop-color="rgb(96.7453%, 63.90686%, 7.78656%)" stop-opacity="1"/>
<stop offset="0.320312" stop-color="rgb(96.720886%, 63.696289%, 7.974243%)" stop-opacity="1"/>
<stop offset="0.324219" stop-color="rgb(96.696472%, 63.490295%, 8.161926%)" stop-opacity="1"/>
<stop offset="0.328125" stop-color="rgb(96.673584%, 63.28125%, 8.346558%)" stop-opacity="1"/>
<stop offset="0.332031" stop-color="rgb(96.64917%, 63.075256%, 8.532715%)" stop-opacity="1"/>
<stop offset="0.335938" stop-color="rgb(96.626282%, 62.869263%, 8.71582%)" stop-opacity="1"/>
<stop offset="0.339844" stop-color="rgb(96.601868%, 62.664795%, 8.895874%)" stop-opacity="1"/>
<stop offset="0.34375" stop-color="rgb(96.578979%, 62.458801%, 9.077454%)" stop-opacity="1"/>
<stop offset="0.347656" stop-color="rgb(96.556091%, 62.255859%, 9.255981%)" stop-opacity="1"/>
<stop offset="0.351562" stop-color="rgb(96.531677%, 62.051392%, 9.434509%)" stop-opacity="1"/>
<stop offset="0.355469" stop-color="rgb(96.508789%, 61.849976%, 9.609985%)" stop-opacity="1"/>
<stop offset="0.359375" stop-color="rgb(96.485901%, 61.64856%, 9.785461%)" stop-opacity="1"/>
<stop offset="0.363281" stop-color="rgb(96.463013%, 61.448669%, 9.959412%)" stop-opacity="1"/>
<stop offset="0.367188" stop-color="rgb(96.440125%, 61.247253%, 10.133362%)" stop-opacity="1"/>
<stop offset="0.371094" stop-color="rgb(96.417236%, 61.048889%, 10.302734%)" stop-opacity="1"/>
<stop offset="0.375" stop-color="rgb(96.394348%, 60.848999%, 10.473633%)" stop-opacity="1"/>
<stop offset="0.378906" stop-color="rgb(96.37146%, 60.652161%, 10.643005%)" stop-opacity="1"/>
<stop offset="0.382812" stop-color="rgb(96.350098%, 60.455322%, 10.810852%)" stop-opacity="1"/>
<stop offset="0.386719" stop-color="rgb(96.328735%, 60.258484%, 10.977173%)" stop-opacity="1"/>
<stop offset="0.390625" stop-color="rgb(96.305847%, 60.063171%, 11.141968%)" stop-opacity="1"/>
<stop offset="0.394531" stop-color="rgb(96.282959%, 59.869385%, 11.303711%)" stop-opacity="1"/>
<stop offset="0.398438" stop-color="rgb(96.260071%, 59.675598%, 11.465454%)" stop-opacity="1"/>
<stop offset="0.402344" stop-color="rgb(96.240234%, 59.484863%, 11.627197%)" stop-opacity="1"/>
<stop offset="0.40625" stop-color="rgb(96.217346%, 59.291077%, 11.787415%)" stop-opacity="1"/>
<stop offset="0.410156" stop-color="rgb(96.19751%, 59.101868%, 11.94458%)" stop-opacity="1"/>
<stop offset="0.414062" stop-color="rgb(96.174622%, 58.911133%, 12.10022%)" stop-opacity="1"/>
<stop offset="0.417969" stop-color="rgb(96.154785%, 58.721924%, 12.255859%)" stop-opacity="1"/>
<stop offset="0.421875" stop-color="rgb(96.131897%, 58.532715%, 12.409973%)" stop-opacity="1"/>
<stop offset="0.425781" stop-color="rgb(96.112061%, 58.346558%, 12.562561%)" stop-opacity="1"/>
<stop offset="0.429688" stop-color="rgb(96.090698%, 58.1604%, 12.715149%)" stop-opacity="1"/>
<stop offset="0.433594" stop-color="rgb(96.070862%, 57.975769%, 12.864685%)" stop-opacity="1"/>
<stop offset="0.4375" stop-color="rgb(96.047974%, 57.791138%, 13.012695%)" stop-opacity="1"/>
<stop offset="0.441406" stop-color="rgb(96.028137%, 57.608032%, 13.160706%)" stop-opacity="1"/>
<stop offset="0.445312" stop-color="rgb(96.006775%, 57.424927%, 13.30719%)" stop-opacity="1"/>
<stop offset="0.449219" stop-color="rgb(95.986938%, 57.246399%, 13.450623%)" stop-opacity="1"/>
<stop offset="0.453125" stop-color="rgb(95.967102%, 57.064819%, 13.594055%)" stop-opacity="1"/>
<stop offset="0.457031" stop-color="rgb(95.948792%, 56.887817%, 13.735962%)" stop-opacity="1"/>
<stop offset="0.460937" stop-color="rgb(95.927429%, 56.70929%, 13.876343%)" stop-opacity="1"/>
<stop offset="0.464844" stop-color="rgb(95.907593%, 56.532288%, 14.015198%)" stop-opacity="1"/>
<stop offset="0.46875" stop-color="rgb(95.887756%, 56.356812%, 14.152527%)" stop-opacity="1"/>
<stop offset="0.472656" stop-color="rgb(95.869446%, 56.184387%, 14.28833%)" stop-opacity="1"/>
<stop offset="0.476563" stop-color="rgb(95.848083%, 56.008911%, 14.424133%)" stop-opacity="1"/>
<stop offset="0.484375" stop-color="rgb(95.829773%, 55.838013%, 14.556885%)" stop-opacity="1"/>
<stop offset="0.492188" stop-color="rgb(95.791626%, 55.499268%, 14.819336%)" stop-opacity="1"/>
<stop offset="0.5" stop-color="rgb(95.755005%, 55.1651%, 15.075684%)" stop-opacity="1"/>
<stop offset="0.507812" stop-color="rgb(95.71991%, 54.837036%, 15.325928%)" stop-opacity="1"/>
<stop offset="0.515625" stop-color="rgb(95.683289%, 54.515076%, 15.570068%)" stop-opacity="1"/>
<stop offset="0.523438" stop-color="rgb(95.648193%, 54.197693%, 15.808105%)" stop-opacity="1"/>
<stop offset="0.53125" stop-color="rgb(95.613098%, 53.887939%, 16.040039%)" stop-opacity="1"/>
<stop offset="0.539063" stop-color="rgb(95.581055%, 53.585815%, 16.265869%)" stop-opacity="1"/>
<stop offset="0.546875" stop-color="rgb(95.547485%, 53.288269%, 16.48407%)" stop-opacity="1"/>
<stop offset="0.554688" stop-color="rgb(95.515442%, 52.999878%, 16.696167%)" stop-opacity="1"/>
<stop offset="0.5625" stop-color="rgb(95.48645%, 52.720642%, 16.900635%)" stop-opacity="1"/>
<stop offset="0.570313" stop-color="rgb(95.455933%, 52.449036%, 17.097473%)" stop-opacity="1"/>
<stop offset="0.578125" stop-color="rgb(95.426941%, 52.189636%, 17.285156%)" stop-opacity="1"/>
<stop offset="0.585938" stop-color="rgb(95.399475%, 51.939392%, 17.46521%)" stop-opacity="1"/>
<stop offset="0.59375" stop-color="rgb(95.373535%, 51.699829%, 17.636108%)" stop-opacity="1"/>
<stop offset="0.601563" stop-color="rgb(95.349121%, 51.475525%, 17.796326%)" stop-opacity="1"/>
<stop offset="0.609375" stop-color="rgb(95.324707%, 51.266479%, 17.944336%)" stop-opacity="1"/>
<stop offset="0.625" stop-color="rgb(95.297241%, 51.004028%, 18.128967%)" stop-opacity="1"/>
<stop offset="0.632813" stop-color="rgb(95.181274%, 50.698853%, 18.255615%)" stop-opacity="1"/>
<stop offset="0.636719" stop-color="rgb(94.767761%, 50.202942%, 18.22052%)" stop-opacity="1"/>
<stop offset="0.640625" stop-color="rgb(94.450378%, 49.847412%, 18.17627%)" stop-opacity="1"/>
<stop offset="0.644531" stop-color="rgb(94.136047%, 49.493408%, 18.132019%)" stop-opacity="1"/>
<stop offset="0.648438" stop-color="rgb(93.82019%, 49.14093%, 18.086243%)" stop-opacity="1"/>
<stop offset="0.652344" stop-color="rgb(93.504333%, 48.788452%, 18.040466%)" stop-opacity="1"/>
<stop offset="0.65625" stop-color="rgb(93.186951%, 48.4375%, 17.99469%)" stop-opacity="1"/>
<stop offset="0.660156" stop-color="rgb(92.87262%, 48.0896%, 17.948914%)" stop-opacity="1"/>
<stop offset="0.664063" stop-color="rgb(92.555237%, 47.741699%, 17.903137%)" stop-opacity="1"/>
<stop offset="0.667969" stop-color="rgb(92.242432%, 47.395325%, 17.857361%)" stop-opacity="1"/>
<stop offset="0.671875" stop-color="rgb(91.926575%, 47.047424%, 17.811584%)" stop-opacity="1"/>
<stop offset="0.675781" stop-color="rgb(91.61377%, 46.704102%, 17.765808%)" stop-opacity="1"/>
<stop offset="0.679688" stop-color="rgb(91.297913%, 46.360779%, 17.718506%)" stop-opacity="1"/>
<stop offset="0.683594" stop-color="rgb(90.985107%, 46.018982%, 17.672729%)" stop-opacity="1"/>
<stop offset="0.6875" stop-color="rgb(90.66925%, 45.678711%, 17.625427%)" stop-opacity="1"/>
<stop offset="0.691406" stop-color="rgb(90.354919%, 45.33844%, 17.578125%)" stop-opacity="1"/>
<stop offset="0.695313" stop-color="rgb(90.042114%, 44.999695%, 17.530823%)" stop-opacity="1"/>
<stop offset="0.699219" stop-color="rgb(89.729309%, 44.664001%, 17.483521%)" stop-opacity="1"/>
<stop offset="0.703125" stop-color="rgb(89.414978%, 44.328308%, 17.434692%)" stop-opacity="1"/>
<stop offset="0.707031" stop-color="rgb(89.102173%, 43.994141%, 17.38739%)" stop-opacity="1"/>
<stop offset="0.710938" stop-color="rgb(88.787842%, 43.659973%, 17.340088%)" stop-opacity="1"/>
<stop offset="0.714844" stop-color="rgb(88.476562%, 43.328857%, 17.29126%)" stop-opacity="1"/>
<stop offset="0.71875" stop-color="rgb(88.163757%, 42.997742%, 17.242432%)" stop-opacity="1"/>
<stop offset="0.722656" stop-color="rgb(87.850952%, 42.668152%, 17.195129%)" stop-opacity="1"/>
<stop offset="0.726562" stop-color="rgb(87.538147%, 42.338562%, 17.146301%)" stop-opacity="1"/>
<stop offset="0.730469" stop-color="rgb(87.226868%, 42.012024%, 17.097473%)" stop-opacity="1"/>
<stop offset="0.734375" stop-color="rgb(86.914062%, 41.685486%, 17.048645%)" stop-opacity="1"/>
<stop offset="0.738281" stop-color="rgb(86.602783%, 41.360474%, 16.999817%)" stop-opacity="1"/>
<stop offset="0.742187" stop-color="rgb(86.291504%, 41.036987%, 16.949463%)" stop-opacity="1"/>
<stop offset="0.746094" stop-color="rgb(85.98175%, 40.715027%, 16.900635%)" stop-opacity="1"/>
<stop offset="0.75" stop-color="rgb(85.668945%, 40.394592%, 16.850281%)" stop-opacity="1"/>
<stop offset="0.753906" stop-color="rgb(85.359192%, 40.074158%, 16.801453%)" stop-opacity="1"/>
<stop offset="0.757813" stop-color="rgb(85.046387%, 39.756775%, 16.751099%)" stop-opacity="1"/>
<stop offset="0.761719" stop-color="rgb(84.736633%, 39.437866%, 16.700745%)" stop-opacity="1"/>
<stop offset="0.765625" stop-color="rgb(84.425354%, 39.122009%, 16.648865%)" stop-opacity="1"/>
<stop offset="0.769531" stop-color="rgb(84.117126%, 38.807678%, 16.600037%)" stop-opacity="1"/>
<stop offset="0.773438" stop-color="rgb(83.805847%, 38.493347%, 16.548157%)" stop-opacity="1"/>
<stop offset="0.777344" stop-color="rgb(83.496094%, 38.182068%, 16.497803%)" stop-opacity="1"/>
<stop offset="0.78125" stop-color="rgb(83.184814%, 37.870789%, 16.445923%)" stop-opacity="1"/>
<stop offset="0.785156" stop-color="rgb(82.876587%, 37.561035%, 16.395569%)" stop-opacity="1"/>
<stop offset="0.789062" stop-color="rgb(82.568359%, 37.251282%, 16.343689%)" stop-opacity="1"/>
<stop offset="0.792969" stop-color="rgb(82.258606%, 36.943054%, 16.291809%)" stop-opacity="1"/>
<stop offset="0.796875" stop-color="rgb(81.948853%, 36.636353%, 16.239929%)" stop-opacity="1"/>
<stop offset="0.800781" stop-color="rgb(81.640625%, 36.331177%, 16.188049%)" stop-opacity="1"/>
<stop offset="0.804688" stop-color="rgb(81.330872%, 36.027527%, 16.136169%)" stop-opacity="1"/>
<stop offset="0.808594" stop-color="rgb(81.022644%, 35.725403%, 16.08429%)" stop-opacity="1"/>
<stop offset="0.8125" stop-color="rgb(80.714417%, 35.423279%, 16.030884%)" stop-opacity="1"/>
<stop offset="0.816406" stop-color="rgb(80.407715%, 35.124207%, 15.979004%)" stop-opacity="1"/>
<stop offset="0.820312" stop-color="rgb(80.099487%, 34.825134%, 15.925598%)" stop-opacity="1"/>
<stop offset="0.824219" stop-color="rgb(79.79126%, 34.527588%, 15.872192%)" stop-opacity="1"/>
<stop offset="0.828125" stop-color="rgb(79.483032%, 34.230042%, 15.818787%)" stop-opacity="1"/>
<stop offset="0.832031" stop-color="rgb(79.176331%, 33.935547%, 15.766907%)" stop-opacity="1"/>
<stop offset="0.835937" stop-color="rgb(78.868103%, 33.641052%, 15.711975%)" stop-opacity="1"/>
<stop offset="0.839844" stop-color="rgb(78.562927%, 33.348083%, 15.660095%)" stop-opacity="1"/>
<stop offset="0.84375" stop-color="rgb(78.2547%, 33.055115%, 15.605164%)" stop-opacity="1"/>
<stop offset="0.847656" stop-color="rgb(77.949524%, 32.765198%, 15.551758%)" stop-opacity="1"/>
<stop offset="0.851562" stop-color="rgb(77.642822%, 32.476807%, 15.496826%)" stop-opacity="1"/>
<stop offset="0.855469" stop-color="rgb(77.337646%, 32.188416%, 15.44342%)" stop-opacity="1"/>
<stop offset="0.859375" stop-color="rgb(77.030945%, 31.90155%, 15.388489%)" stop-opacity="1"/>
<stop offset="0.863281" stop-color="rgb(76.724243%, 31.616211%, 15.333557%)" stop-opacity="1"/>
<stop offset="0.867188" stop-color="rgb(76.417542%, 31.332397%, 15.278625%)" stop-opacity="1"/>
<stop offset="0.871094" stop-color="rgb(76.112366%, 31.048584%, 15.22522%)" stop-opacity="1"/>
<stop offset="0.875" stop-color="rgb(75.80719%, 30.767822%, 15.168762%)" stop-opacity="1"/>
<stop offset="0.878906" stop-color="rgb(75.50354%, 30.487061%, 15.113831%)" stop-opacity="1"/>
<stop offset="0.882812" stop-color="rgb(75.196838%, 30.207825%, 15.058899%)" stop-opacity="1"/>
<stop offset="0.886719" stop-color="rgb(74.893188%, 29.930115%, 15.003967%)" stop-opacity="1"/>
<stop offset="0.890625" stop-color="rgb(74.588013%, 29.652405%, 14.94751%)" stop-opacity="1"/>
<stop offset="0.894531" stop-color="rgb(74.282837%, 29.376221%, 14.891052%)" stop-opacity="1"/>
<stop offset="0.898437" stop-color="rgb(73.977661%, 29.100037%, 14.834595%)" stop-opacity="1"/>
<stop offset="0.902344" stop-color="rgb(73.675537%, 28.82843%, 14.779663%)" stop-opacity="1"/>
<stop offset="0.90625" stop-color="rgb(73.370361%, 28.555298%, 14.72168%)" stop-opacity="1"/>
<stop offset="0.910156" stop-color="rgb(73.068237%, 28.285217%, 14.666748%)" stop-opacity="1"/>
<stop offset="0.914063" stop-color="rgb(72.763062%, 28.015137%, 14.608765%)" stop-opacity="1"/>
<stop offset="0.917969" stop-color="rgb(72.460938%, 27.746582%, 14.552307%)" stop-opacity="1"/>
<stop offset="0.921875" stop-color="rgb(72.157288%, 27.479553%, 14.49585%)" stop-opacity="1"/>
<stop offset="0.925781" stop-color="rgb(71.855164%, 27.21405%, 14.437866%)" stop-opacity="1"/>
<stop offset="0.929688" stop-color="rgb(71.551514%, 26.950073%, 14.381409%)" stop-opacity="1"/>
<stop offset="0.933594" stop-color="rgb(71.247864%, 26.686096%, 14.323425%)" stop-opacity="1"/>
<stop offset="0.9375" stop-color="rgb(70.944214%, 26.423645%, 14.265442%)" stop-opacity="1"/>
<stop offset="0.941406" stop-color="rgb(70.643616%, 26.16272%, 14.207458%)" stop-opacity="1"/>
<stop offset="0.945312" stop-color="rgb(70.341492%, 25.90332%, 14.149475%)" stop-opacity="1"/>
<stop offset="0.949219" stop-color="rgb(70.039368%, 25.643921%, 14.091492%)" stop-opacity="1"/>
<stop offset="0.953125" stop-color="rgb(69.737244%, 25.387573%, 14.033508%)" stop-opacity="1"/>
<stop offset="0.957031" stop-color="rgb(69.436646%, 25.131226%, 13.975525%)" stop-opacity="1"/>
<stop offset="0.960937" stop-color="rgb(69.134521%, 24.874878%, 13.916016%)" stop-opacity="1"/>
<stop offset="0.964844" stop-color="rgb(68.832397%, 24.621582%, 13.858032%)" stop-opacity="1"/>
<stop offset="0.96875" stop-color="rgb(68.531799%, 24.368286%, 13.798523%)" stop-opacity="1"/>
<stop offset="0.972656" stop-color="rgb(68.231201%, 24.118042%, 13.739014%)" stop-opacity="1"/>
<stop offset="0.976563" stop-color="rgb(67.929077%, 23.867798%, 13.679504%)" stop-opacity="1"/>
<stop offset="0.980469" stop-color="rgb(67.630005%, 23.61908%, 13.619995%)" stop-opacity="1"/>
<stop offset="0.984375" stop-color="rgb(67.327881%, 23.370361%, 13.560486%)" stop-opacity="1"/>
<stop offset="0.988281" stop-color="rgb(67.028809%, 23.124695%, 13.500977%)" stop-opacity="1"/>
<stop offset="0.992188" stop-color="rgb(66.729736%, 22.879028%, 13.441467%)" stop-opacity="1"/>
<stop offset="0.996094" stop-color="rgb(66.430664%, 22.636414%, 13.381958%)" stop-opacity="1"/>
<stop offset="1" stop-color="rgb(66.130066%, 22.393799%, 13.320923%)" stop-opacity="1"/>
</linearGradient>
</defs>
<g clip-path="url(#clip-0)">
<g clip-path="url(#clip-1)">
<g clip-path="url(#clip-2)">
<path fill-rule="nonzero" fill="url(#linear-pattern-0)" d="M 1728.171875 870.089844 L 985.03125 156.886719 L 271.828125 900.027344 L 1014.96875 1613.234375 Z M 1728.171875 870.089844 "/>
</g>
</g>
</g>
<path fill-rule="nonzero" fill="rgb(13.729858%, 12.159729%, 12.548828%)" fill-opacity="1" d="M 1000 464.449219 C 768.074219 464.449219 579.390625 653.140625 579.390625 885.058594 C 579.390625 1116.988281 768.074219 1305.671875 1000 1305.671875 C 1231.929688 1305.671875 1420.609375 1116.988281 1420.609375 885.058594 C 1420.609375 653.140625 1231.929688 464.449219 1000 464.449219 Z M 1000 1345.828125 C 937.804688 1345.828125 877.460938 1333.640625 820.644531 1309.609375 C 765.773438 1286.398438 716.496094 1253.179688 674.1875 1210.871094 C 631.878906 1168.558594 598.660156 1119.289062 575.449219 1064.421875 C 551.417969 1007.601562 539.234375 947.261719 539.234375 885.058594 C 539.234375 822.871094 551.417969 762.519531 575.449219 705.699219 C 598.660156 650.828125 631.878906 601.558594 674.1875 559.25 C 716.496094 516.941406 765.773438 483.71875 820.644531 460.511719 C 877.460938 436.480469 937.804688 424.289062 1000 424.289062 C 1062.191406 424.289062 1122.539062 436.480469 1179.359375 460.511719 C 1234.230469 483.71875 1283.5 516.941406 1325.808594 559.25 C 1368.121094 601.558594 1401.339844 650.828125 1424.550781 705.699219 C 1448.578125 762.519531 1460.769531 822.871094 1460.769531 885.058594 C 1460.769531 947.261719 1448.578125 1007.601562 1424.550781 1064.421875 C 1401.339844 1119.289062 1368.121094 1168.558594 1325.808594 1210.871094 C 1283.5 1253.179688 1234.230469 1286.398438 1179.359375 1309.609375 C 1122.539062 1333.640625 1062.191406 1345.828125 1000 1345.828125 "/>
<path fill-rule="nonzero" fill="rgb(13.729858%, 12.159729%, 12.548828%)" fill-opacity="1" d="M 608.121094 1458.378906 L 578.792969 1451.621094 C 576.046875 1450.679688 574.675781 1448.238281 574.675781 1444.289062 C 574.675781 1440.390625 576.757812 1438.441406 580.914062 1438.441406 L 615.515625 1438.441406 L 615.515625 1418.890625 L 580.078125 1418.890625 C 578.320312 1419.058594 576.582031 1419.289062 574.867188 1419.589844 C 570.859375 1420.28125 567.507812 1421.398438 564.761719 1422.898438 C 561.863281 1422.730469 558.988281 1422.390625 556.15625 1421.761719 C 549.730469 1420.328125 543.453125 1417.25 539.410156 1412.050781 C 533.570312 1404.539062 533.425781 1394.710938 534.386719 1385.25 C 532.5 1392.558594 530.601562 1399.980469 530.710938 1407.53125 C 530.816406 1415.078125 533.183594 1422.910156 538.675781 1428.101562 C 542.875 1432.058594 548.320312 1434.039062 554.054688 1435.210938 C 552.65625 1438.519531 551.933594 1441.988281 551.972656 1445.640625 C 552.015625 1450.140625 553.066406 1454.328125 555.125 1458.179688 C 557.183594 1462.089844 560.011719 1465.238281 563.613281 1467.640625 C 566.058594 1469.308594 569.082031 1470.601562 572.683594 1471.5 L 595.515625 1476.058594 C 598.257812 1476.839844 599.632812 1479.261719 599.632812 1483.328125 C 599.632812 1487.410156 597.574219 1489.441406 593.457031 1489.441406 L 557.117188 1489.441406 L 557.117188 1508.988281 L 595.578125 1508.988281 C 597.550781 1508.988281 599.332031 1508.820312 600.917969 1508.480469 C 605.03125 1507.75 608.679688 1506.269531 611.851562 1504.039062 C 615.625 1501.378906 618.410156 1497.828125 620.210938 1493.359375 C 622.054688 1488.949219 622.699219 1484.230469 622.140625 1479.21875 C 621.839844 1468.75 617.167969 1461.808594 608.121094 1458.378906 "/>
<path fill-rule="nonzero" fill="rgb(13.729858%, 12.159729%, 12.548828%)" fill-opacity="1" d="M 669.542969 1418.890625 L 632.625 1418.890625 L 632.625 1509.058594 L 653.015625 1509.058594 L 653.015625 1437.988281 L 666.457031 1437.988281 C 675.632812 1437.988281 680.21875 1442.019531 680.21875 1450.078125 C 680.21875 1458.179688 675.632812 1462.238281 666.457031 1462.238281 L 660.476562 1462.238281 L 660.476562 1481.789062 L 669.542969 1481.789062 C 690.769531 1481.789062 701.378906 1471.300781 701.378906 1450.339844 C 701.378906 1429.371094 690.769531 1418.890625 669.542969 1418.890625 "/>
<path fill-rule="nonzero" fill="rgb(13.729858%, 12.159729%, 12.548828%)" fill-opacity="1" d="M 856.769531 1467.898438 L 864.679688 1458.570312 C 869.4375 1453.769531 871.859375 1448.039062 871.945312 1441.398438 C 872.03125 1434.320312 869.953125 1428.769531 865.707031 1424.738281 C 861.503906 1420.75 856.0625 1418.800781 849.371094 1418.890625 L 802.164062 1418.890625 L 802.226562 1508.988281 L 822.421875 1508.988281 L 822.421875 1437.601562 L 849.5625 1437.601562 C 851.578125 1437.601562 852.589844 1438.398438 852.589844 1439.980469 C 852.589844 1441.570312 851.964844 1443.089844 850.722656 1444.550781 L 835.929688 1462.300781 C 832.371094 1466.589844 832.371094 1472.378906 835.929688 1479.671875 L 850.914062 1508.988281 L 875.613281 1508.988281 L 856.1875 1474.199219 C 855.203125 1471.839844 855.394531 1469.738281 856.769531 1467.898438 "/>
<path fill-rule="nonzero" fill="rgb(13.729858%, 12.159729%, 12.548828%)" fill-opacity="1" d="M 878.828125 1438.441406 L 899.730469 1438.441406 L 899.730469 1509.058594 L 920.699219 1509.058594 L 920.699219 1438.441406 L 940.570312 1438.441406 L 940.570312 1418.949219 L 878.828125 1418.949219 L 878.828125 1438.441406 "/>
<path fill-rule="nonzero" fill="rgb(13.729858%, 12.159729%, 12.548828%)" fill-opacity="1" d="M 1091.328125 1466.21875 L 1059.621094 1421.78125 C 1058.289062 1420.019531 1056.601562 1418.820312 1054.539062 1418.179688 C 1052.441406 1417.488281 1050.359375 1417.488281 1048.300781 1418.179688 C 1046.238281 1418.871094 1044.570312 1420.089844 1043.289062 1421.851562 C 1042 1423.648438 1041.359375 1425.621094 1041.359375 1427.761719 L 1041.359375 1509.058594 L 1061.550781 1509.058594 L 1061.550781 1461.140625 L 1093.320312 1505.648438 C 1094.609375 1507.410156 1096.28125 1508.609375 1098.339844 1509.25 C 1100.441406 1509.941406 1102.519531 1509.941406 1104.578125 1509.25 C 1106.679688 1508.570312 1108.351562 1507.339844 1109.601562 1505.589844 C 1110.878906 1503.828125 1111.53125 1501.859375 1111.53125 1499.671875 L 1111.53125 1418.820312 L 1091.328125 1418.820312 L 1091.328125 1466.21875 "/>
<path fill-rule="nonzero" fill="rgb(13.729858%, 12.159729%, 12.548828%)" fill-opacity="1" d="M 1164.910156 1418.949219 L 1144.070312 1418.949219 L 1144.070312 1490.660156 C 1144.070312 1502.878906 1149.75 1508.988281 1161.109375 1508.988281 L 1202.46875 1508.988281 L 1202.46875 1489.570312 L 1164.910156 1489.570312 L 1164.910156 1418.949219 "/>
<path fill-rule="nonzero" fill="rgb(13.729858%, 12.159729%, 12.548828%)" fill-opacity="1" d="M 1267.039062 1469.761719 C 1267.039062 1483.519531 1261 1490.410156 1248.910156 1490.410156 L 1247.808594 1490.410156 C 1235.71875 1490.410156 1229.671875 1483.519531 1229.671875 1469.761719 L 1229.671875 1458.828125 C 1229.671875 1444.851562 1235.53125 1437.820312 1247.230469 1437.730469 L 1249.480469 1437.730469 C 1261.191406 1437.820312 1267.039062 1444.851562 1267.039062 1458.828125 Z M 1255.46875 1418.308594 L 1241.25 1418.308594 C 1219.679688 1418.308594 1208.898438 1433.53125 1208.898438 1463.96875 C 1208.898438 1494.421875 1219.679688 1509.640625 1241.25 1509.640625 L 1255.46875 1509.640625 C 1277.03125 1509.640625 1287.820312 1494.421875 1287.820312 1463.96875 C 1287.820312 1433.53125 1277.03125 1418.308594 1255.46875 1418.308594 "/>
<path fill-rule="nonzero" fill="rgb(13.729858%, 12.159729%, 12.548828%)" fill-opacity="1" d="M 1294.25 1463.96875 C 1294.25 1493.988281 1305.910156 1508.988281 1329.238281 1508.988281 L 1359.46875 1508.988281 L 1359.46875 1465.390625 L 1339.078125 1465.390625 L 1339.078125 1489.761719 L 1337.410156 1489.761719 C 1322.480469 1489.761719 1315.019531 1482.878906 1315.019531 1469.121094 L 1315.019531 1459.46875 C 1315.019531 1445.410156 1322.78125 1438.371094 1338.308594 1438.371094 L 1359.46875 1438.371094 L 1359.46875 1418.949219 L 1329.238281 1418.949219 C 1305.910156 1418.949219 1294.25 1433.960938 1294.25 1463.96875 "/>
<path fill-rule="nonzero" fill="rgb(13.729858%, 12.159729%, 12.548828%)" fill-opacity="1" d="M 1427.25 1469.761719 C 1427.25 1483.519531 1421.210938 1490.410156 1409.121094 1490.410156 L 1408.019531 1490.410156 C 1395.929688 1490.410156 1389.890625 1483.519531 1389.890625 1469.761719 L 1389.890625 1458.828125 C 1389.890625 1444.851562 1395.738281 1437.820312 1407.449219 1437.730469 L 1409.699219 1437.730469 C 1421.398438 1437.820312 1427.25 1444.851562 1427.25 1458.828125 Z M 1469.289062 1407.53125 C 1469.398438 1399.980469 1467.5 1392.558594 1465.621094 1385.25 C 1466.578125 1394.710938 1466.429688 1404.539062 1460.589844 1412.050781 C 1456.550781 1417.25 1450.269531 1420.328125 1443.839844 1421.761719 C 1440.300781 1422.550781 1436.691406 1422.878906 1433.058594 1423.011719 C 1428.371094 1419.890625 1422.578125 1418.308594 1415.679688 1418.308594 L 1401.460938 1418.308594 C 1379.898438 1418.308594 1369.109375 1433.53125 1369.109375 1463.96875 C 1369.109375 1494.421875 1379.898438 1509.640625 1401.460938 1509.640625 L 1415.679688 1509.640625 C 1437.25 1509.640625 1448.03125 1494.421875 1448.03125 1463.96875 C 1448.03125 1452.308594 1446.429688 1442.890625 1443.261719 1435.699219 C 1449.960938 1434.601562 1456.46875 1432.671875 1461.320312 1428.101562 C 1466.820312 1422.910156 1469.179688 1415.078125 1469.289062 1407.53125 "/>
<path fill-rule="nonzero" fill="rgb(13.729858%, 12.159729%, 12.548828%)" fill-opacity="1" d="M 778.285156 1471.511719 L 760.230469 1423.96875 C 759.5 1422.300781 758.320312 1420.941406 756.691406 1419.921875 C 755.0625 1418.929688 753.324219 1418.441406 751.480469 1418.441406 C 749.59375 1418.441406 747.878906 1418.929688 746.335938 1419.921875 C 744.792969 1420.941406 743.636719 1422.300781 742.863281 1423.96875 L 711.027344 1508.929688 L 731.671875 1508.929688 L 751.546875 1456.960938 L 760.164062 1479.089844 C 760.011719 1479.210938 759.851562 1479.308594 759.699219 1479.421875 C 755.40625 1482.648438 751.738281 1486.679688 748.859375 1491.21875 C 753.011719 1488.328125 757.355469 1485.730469 761.824219 1483.359375 L 771.808594 1508.988281 L 792.515625 1508.988281 L 779.820312 1475.558594 C 784.550781 1473.929688 789.367188 1472.550781 794.261719 1471.5 C 788.96875 1470.601562 783.539062 1470.601562 778.285156 1471.511719 "/>
<path fill-rule="nonzero" fill="rgb(13.729858%, 12.159729%, 12.548828%)" fill-opacity="1" d="M 1017.691406 1472.070312 L 999.421875 1423.96875 C 998.691406 1422.300781 997.515625 1420.941406 995.886719 1419.921875 C 994.253906 1418.929688 992.519531 1418.441406 990.675781 1418.441406 C 988.789062 1418.441406 987.074219 1418.929688 985.527344 1419.921875 C 983.984375 1420.941406 982.828125 1422.300781 982.058594 1423.96875 L 950.21875 1508.929688 L 970.863281 1508.929688 L 990.738281 1456.960938 L 1000.050781 1480.878906 C 996.519531 1483.839844 993.4375 1487.328125 990.964844 1491.21875 C 994.367188 1488.851562 997.890625 1486.648438 1001.511719 1484.628906 L 1011 1508.988281 L 1031.710938 1508.988281 L 1019.351562 1476.460938 C 1024.898438 1474.410156 1030.578125 1472.738281 1036.371094 1471.5 C 1030.160156 1470.449219 1023.769531 1470.640625 1017.691406 1472.070312 "/>
<path fill-rule="nonzero" fill="rgb(27.436829%, 28.636169%, 43.443298%)" fill-opacity="1" d="M 888.40625 1550.96875 C 887.160156 1550.03125 885.085938 1549.398438 882.1875 1549.089844 C 881.296875 1549 880.089844 1548.878906 878.570312 1548.730469 C 873.019531 1548.179688 870.242188 1547.148438 870.242188 1545.640625 L 870.242188 1542.871094 C 870.242188 1541.550781 870.683594 1540.621094 871.5625 1540.101562 C 872.441406 1539.570312 873.992188 1539.308594 876.214844 1539.308594 L 878.980469 1539.308594 C 881.011719 1539.308594 882.433594 1539.578125 883.246094 1540.121094 C 884.058594 1540.671875 884.464844 1541.640625 884.464844 1543.039062 L 884.464844 1543.839844 L 889.785156 1543.839844 L 889.785156 1542.648438 C 889.785156 1540.070312 889.039062 1538.300781 887.554688 1537.351562 C 886.0625 1536.390625 883.367188 1535.910156 879.464844 1535.910156 L 875.726562 1535.910156 C 871.964844 1535.910156 869.160156 1536.449219 867.316406 1537.519531 C 865.476562 1538.601562 864.554688 1540.261719 864.554688 1542.488281 L 864.554688 1546.328125 C 864.554688 1547.988281 865.121094 1549.171875 866.261719 1549.890625 C 867.398438 1550.609375 870.417969 1551.261719 875.320312 1551.828125 C 875.78125 1551.878906 876.433594 1551.960938 877.273438 1552.050781 C 882.175781 1552.578125 884.628906 1553.859375 884.628906 1555.890625 L 884.628906 1558.601562 C 884.628906 1559.941406 884.179688 1560.890625 883.285156 1561.429688 C 882.390625 1561.96875 880.835938 1562.25 878.613281 1562.25 L 874.875 1562.25 C 872.734375 1562.25 871.285156 1561.96875 870.527344 1561.421875 C 869.769531 1560.859375 869.390625 1559.628906 869.390625 1557.710938 L 869.390625 1555.941406 L 864.066406 1555.941406 L 864.066406 1558.898438 C 864.066406 1561.460938 864.8125 1563.21875 866.300781 1564.179688 C 867.789062 1565.140625 870.484375 1565.621094 874.386719 1565.621094 L 879.140625 1565.621094 C 882.90625 1565.621094 885.703125 1565.078125 887.53125 1564 C 889.359375 1562.921875 890.273438 1561.28125 890.273438 1559.070312 L 890.273438 1555.230469 C 890.273438 1553.328125 889.652344 1551.910156 888.40625 1550.96875 "/>
<path fill-rule="nonzero" fill="rgb(27.436829%, 28.636169%, 43.443298%)" fill-opacity="1" d="M 918.066406 1565.121094 L 923.472656 1565.121094 L 923.472656 1523.359375 L 918.066406 1523.359375 L 918.066406 1565.121094 "/>
<path fill-rule="nonzero" fill="rgb(27.436829%, 28.636169%, 43.443298%)" fill-opacity="1" d="M 971.761719 1554.199219 C 971.761719 1557.449219 971.199219 1559.558594 970.074219 1560.53125 C 968.953125 1561.511719 966.789062 1562 963.597656 1562 C 960.398438 1562 958.246094 1561.519531 957.136719 1560.558594 C 956.023438 1559.601562 955.46875 1557.480469 955.46875 1554.199219 L 955.46875 1547.351562 C 955.46875 1544.128906 956.023438 1542.03125 957.136719 1541.050781 C 958.246094 1540.070312 960.398438 1539.578125 963.597656 1539.578125 C 966.816406 1539.578125 968.984375 1540.058594 970.097656 1541.019531 C 971.207031 1541.980469 971.761719 1544.089844 971.761719 1547.351562 Z M 974.445312 1538.421875 C 972.410156 1536.75 968.824219 1535.910156 963.675781 1535.910156 C 958.476562 1535.910156 954.847656 1536.75 952.785156 1538.441406 C 950.730469 1540.121094 949.699219 1543.089844 949.699219 1547.351562 L 949.699219 1554.148438 C 949.699219 1558.398438 950.734375 1561.378906 952.808594 1563.078125 C 954.878906 1564.769531 958.476562 1565.621094 963.597656 1565.621094 C 968.769531 1565.621094 972.378906 1564.78125 974.425781 1563.089844 C 976.46875 1561.398438 977.492188 1558.421875 977.492188 1554.148438 L 977.492188 1547.351562 C 977.492188 1543.078125 976.476562 1540.101562 974.445312 1538.421875 "/>
<path fill-rule="nonzero" fill="rgb(27.436829%, 28.636169%, 43.443298%)" fill-opacity="1" d="M 1025.601562 1551.410156 C 1025.601562 1554.890625 1024.949219 1557.28125 1023.671875 1558.558594 C 1022.378906 1559.839844 1020.171875 1560.480469 1017.019531 1560.480469 C 1014.398438 1560.480469 1012.550781 1559.839844 1011.480469 1558.558594 C 1010.410156 1557.28125 1009.871094 1554.960938 1009.871094 1551.609375 L 1009.871094 1548.320312 C 1009.871094 1544.949219 1010.410156 1542.621094 1011.480469 1541.339844 C 1012.550781 1540.058594 1014.398438 1539.421875 1017.019531 1539.421875 C 1020.171875 1539.421875 1022.378906 1540.058594 1023.671875 1541.339844 C 1024.949219 1542.621094 1025.601562 1545 1025.601562 1548.480469 Z M 1026 1539.828125 C 1024.648438 1538.488281 1023.109375 1537.5 1021.390625 1536.859375 C 1019.671875 1536.230469 1017.660156 1535.910156 1015.359375 1535.910156 C 1011.269531 1535.910156 1008.359375 1536.890625 1006.621094 1538.851562 C 1004.890625 1540.808594 1004.019531 1544.191406 1004.019531 1548.980469 L 1004.019531 1551.769531 C 1004.019531 1556.140625 1004.929688 1559.269531 1006.738281 1561.148438 C 1008.558594 1563.039062 1011.511719 1563.988281 1015.601562 1563.988281 C 1017.769531 1563.988281 1019.691406 1563.691406 1021.351562 1563.089844 C 1023.019531 1562.488281 1024.429688 1561.578125 1025.601562 1560.371094 L 1025.601562 1565.121094 C 1025.601562 1568.25 1025.03125 1570.238281 1023.890625 1571.089844 C 1022.75 1571.941406 1020.601562 1572.359375 1017.429688 1572.359375 C 1014.96875 1572.359375 1013.179688 1572.089844 1012.089844 1571.558594 C 1010.988281 1571.03125 1010.441406 1570.160156 1010.441406 1568.960938 C 1010.441406 1568.890625 1010.460938 1568.78125 1010.480469 1568.628906 C 1010.511719 1568.480469 1010.519531 1568.371094 1010.519531 1568.300781 L 1004.960938 1568.300781 L 1004.960938 1569.761719 C 1004.960938 1571.75 1006 1573.238281 1008.078125 1574.230469 C 1010.171875 1575.210938 1013.308594 1575.710938 1017.511719 1575.710938 C 1022.441406 1575.710938 1025.921875 1574.988281 1027.960938 1573.550781 C 1029.988281 1572.109375 1031 1569.640625 1031 1566.140625 L 1031 1536.429688 L 1026 1536.429688 L 1026 1539.828125 "/>
<path fill-rule="nonzero" fill="rgb(27.436829%, 28.636169%, 43.443298%)" fill-opacity="1" d="M 1076.289062 1560.929688 C 1075.039062 1561.851562 1072.910156 1562.300781 1069.910156 1562.300781 C 1067.441406 1562.300781 1065.671875 1561.878906 1064.609375 1561.039062 C 1063.539062 1560.210938 1063 1558.789062 1063 1556.800781 C 1063 1554.328125 1063.511719 1552.691406 1064.539062 1551.871094 C 1065.570312 1551.050781 1067.589844 1550.640625 1070.601562 1550.640625 C 1073.550781 1550.640625 1075.550781 1551.019531 1076.589844 1551.769531 C 1077.628906 1552.53125 1078.160156 1553.988281 1078.160156 1556.171875 C 1078.160156 1558.429688 1077.53125 1560.019531 1076.289062 1560.929688 Z M 1080.660156 1537.609375 C 1078.878906 1536.398438 1075.660156 1535.800781 1071 1535.800781 C 1066.699219 1535.800781 1063.550781 1536.371094 1061.578125 1537.511719 C 1059.601562 1538.648438 1058.609375 1540.460938 1058.609375 1542.929688 L 1058.609375 1544.230469 L 1064.179688 1544.230469 L 1064.179688 1542.871094 C 1064.179688 1541.578125 1064.679688 1540.660156 1065.679688 1540.101562 C 1066.679688 1539.53125 1068.378906 1539.25 1070.761719 1539.25 C 1073.660156 1539.25 1075.589844 1539.628906 1076.550781 1540.390625 C 1077.511719 1541.140625 1077.988281 1542.738281 1077.988281 1545.191406 L 1077.988281 1549.671875 C 1077.019531 1548.820312 1075.761719 1548.199219 1074.238281 1547.789062 C 1072.699219 1547.390625 1070.800781 1547.179688 1068.53125 1547.179688 C 1064.871094 1547.179688 1062.089844 1547.808594 1060.199219 1549.050781 C 1058.300781 1550.289062 1057.351562 1552.121094 1057.351562 1554.539062 L 1057.351562 1558.378906 C 1057.351562 1560.851562 1058.21875 1562.679688 1059.949219 1563.878906 C 1061.691406 1565.070312 1064.308594 1565.671875 1067.839844 1565.671875 C 1070.519531 1565.671875 1072.640625 1565.429688 1074.210938 1564.941406 C 1075.789062 1564.449219 1077.039062 1563.648438 1077.988281 1562.519531 L 1077.988281 1565.121094 L 1083.320312 1565.121094 L 1083.320312 1544.230469 C 1083.320312 1541.019531 1082.429688 1538.808594 1080.660156 1537.609375 "/>
<path fill-rule="nonzero" fill="rgb(27.436829%, 28.636169%, 43.443298%)" fill-opacity="1" d="M 1124.878906 1535.910156 C 1122.46875 1535.910156 1120.410156 1536.230469 1118.710938 1536.859375 C 1117 1537.5 1115.621094 1538.460938 1114.558594 1539.75 L 1114.558594 1536.429688 L 1109.558594 1536.429688 L 1109.558594 1565.121094 L 1114.96875 1565.121094 L 1114.96875 1549.039062 C 1114.96875 1545.421875 1115.640625 1542.890625 1116.980469 1541.441406 C 1118.320312 1539.980469 1120.558594 1539.25 1123.699219 1539.25 C 1126.199219 1539.25 1127.960938 1539.808594 1128.988281 1540.921875 C 1130.011719 1542.039062 1130.53125 1544.03125 1130.53125 1546.910156 L 1130.53125 1565.121094 L 1135.929688 1565.121094 L 1135.929688 1545.878906 C 1135.929688 1542.308594 1135.070312 1539.75 1133.351562 1538.21875 C 1131.628906 1536.679688 1128.808594 1535.910156 1124.878906 1535.910156 "/>
<path fill-rule="nonzero" fill="rgb(27.436829%, 28.636169%, 43.443298%)" fill-opacity="1" d="M 757.8125 1537.511719 C 674.945312 1540.808594 601.484375 1548.839844 539.1875 1558.289062 C 625.460938 1548.429688 719.378906 1542 820.019531 1541.261719 C 833.191406 1541.160156 846.226562 1541.160156 859.125 1541.261719 C 859.914062 1539.519531 860.703125 1537.78125 861.492188 1536.039062 C 829.007812 1535.671875 794.355469 1536.058594 757.8125 1537.511719 "/>
<path fill-rule="nonzero" fill="rgb(27.436829%, 28.636169%, 43.443298%)" fill-opacity="1" d="M 1242.191406 1537.511719 C 1205.648438 1536.058594 1170.988281 1535.671875 1138.511719 1536.039062 C 1139.300781 1537.78125 1140.089844 1539.519531 1140.878906 1541.261719 C 1153.769531 1541.160156 1166.808594 1541.160156 1179.980469 1541.261719 C 1280.621094 1542 1374.539062 1548.429688 1460.808594 1558.289062 C 1398.511719 1548.839844 1325.050781 1540.808594 1242.191406 1537.511719 "/>
</svg>
