<?xml version="1.0" encoding="UTF-8"?>
<svg xmlns="http://www.w3.org/2000/svg" xmlns:xlink="http://www.w3.org/1999/xlink" width="5000" height="5000" viewBox="0 0 5000 5000">
<rect x="-500" y="-500" width="6000" height="6000" fill="rgb(100%, 100%, 100%)" fill-opacity="1"/>
<path fill-rule="evenodd" fill="rgb(19.798279%, 19.798279%, 19.798279%)" fill-opacity="1" d="M 2582.011719 2742.621094 L 2582.011719 4857.109375 L 4696.5 4857.109375 L 4696.5 2742.621094 L 2582.011719 2742.621094 "/>
<path fill-rule="evenodd" fill="rgb(55.271912%, 13.696289%, 16.893005%)" fill-opacity="1" d="M 2676.351562 2660.808594 L 2676.351562 4775.300781 L 4790.839844 4775.300781 L 4790.839844 2660.808594 L 2676.351562 2660.808594 "/>
<path fill-rule="evenodd" fill="rgb(100%, 100%, 100%)" fill-opacity="1" d="M 4091.160156 3493.519531 C 4091.160156 3458.238281 4077.140625 3424.398438 4052.199219 3399.460938 C 4027.25 3374.511719 3993.410156 3360.488281 3958.128906 3360.488281 C 3894.058594 3360.488281 3813.828125 3360.488281 3733.589844 3360.488281 C 3638.761719 3360.488281 3547.808594 3398.160156 3480.761719 3465.21875 C 3413.699219 3532.28125 3376.03125 3623.21875 3376.03125 3718.058594 C 3376.03125 3812.890625 3413.699219 3903.828125 3480.761719 3970.890625 C 3547.808594 4037.949219 3638.761719 4075.617188 3733.589844 4075.617188 C 3813.828125 4075.617188 3894.058594 4075.617188 3958.128906 4075.617188 C 3993.410156 4075.617188 4027.25 4061.605469 4052.199219 4036.65625 C 4077.140625 4011.710938 4091.160156 3977.871094 4091.160156 3942.589844 C 4091.160156 3814.441406 4091.160156 3621.671875 4091.160156 3493.519531 Z M 3599.488281 4015.324219 C 3551.609375 3959.738281 3484.03125 3795.210938 3484.03125 3716.140625 C 3484.03125 3540.941406 3600.960938 3420.789062 3776.160156 3420.789062 C 3855.21875 3420.789062 3927.578125 3449.761719 3983.160156 3497.640625 L 3871.011719 3566.878906 C 3836.460938 3540.191406 3823.378906 3536.78125 3776.160156 3536.78125 C 3663.699219 3536.78125 3556.109375 3631.519531 3556.109375 3742.699219 C 3556.109375 3790.199219 3571.621094 3980.871094 3599.488281 4015.324219 Z M 3748.238281 3859.191406 C 3748.238281 3859.191406 3828.648438 3990.050781 3663.28125 3987.800781 L 3672.390625 3916.121094 Z M 3842.078125 3805.53125 C 3842.078125 3805.53125 3838.019531 3846.070312 3904.679688 3866.339844 C 3904.679688 3866.339844 3854.21875 3924.449219 3942.921875 3987.800781 C 3942.921875 3987.800781 3808.859375 3983.640625 3782.128906 3844.691406 Z M 3639.910156 3902.210938 C 3640.691406 3903.148438 3641.800781 3903.730469 3643.011719 3903.851562 C 3644.21875 3903.960938 3645.421875 3903.589844 3646.351562 3902.820312 C 3660.308594 3891.261719 3711.648438 3848.769531 3725.609375 3837.210938 C 3726.539062 3836.441406 3727.128906 3835.328125 3727.25 3834.121094 C 3727.359375 3832.910156 3726.988281 3831.710938 3726.21875 3830.769531 C 3725.140625 3829.480469 3723.929688 3828.011719 3722.859375 3826.710938 C 3722.078125 3825.78125 3720.96875 3825.191406 3719.761719 3825.078125 C 3718.550781 3824.960938 3717.351562 3825.328125 3716.421875 3826.109375 C 3702.460938 3837.660156 3651.121094 3880.160156 3637.160156 3891.710938 C 3636.230469 3892.488281 3635.640625 3893.601562 3635.519531 3894.808594 C 3635.410156 3896.011719 3635.78125 3897.21875 3636.550781 3898.148438 C 3637.628906 3899.449219 3638.839844 3900.921875 3639.910156 3902.210938 Z M 3823.988281 3763.148438 L 3790.628906 3719.160156 L 3909.898438 3633 C 3879.171875 3687.898438 3968.128906 3750.691406 3968.128906 3750.691406 C 3914.308594 3719.179688 3869.730469 3744.03125 3847.871094 3761.710938 L 3837.601562 3770.949219 C 3834.820312 3773.738281 3832.960938 3774.980469 3832.960938 3774.980469 L 3788.910156 3813.28125 C 3786.339844 3816.109375 3783.441406 3818.628906 3780.28125 3820.78125 L 3779.71875 3821.160156 C 3772.039062 3826.238281 3762.839844 3829.199219 3752.960938 3829.199219 C 3726.148438 3829.199219 3704.390625 3807.429688 3704.390625 3780.621094 C 3704.390625 3753.808594 3726.148438 3732.039062 3752.960938 3732.039062 C 3779.769531 3732.039062 3801.539062 3753.808594 3801.539062 3780.621094 C 3801.539062 3781.320312 3801.519531 3782.019531 3801.488281 3782.710938 Z M 3778.800781 3802.449219 L 3770.960938 3809.261719 C 3765.75 3812.539062 3759.578125 3814.441406 3752.960938 3814.441406 C 3734.289062 3814.441406 3719.140625 3799.289062 3719.140625 3780.621094 C 3719.140625 3761.949219 3734.289062 3746.789062 3752.960938 3746.789062 C 3771.628906 3746.789062 3786.789062 3761.949219 3786.789062 3780.621094 C 3786.789062 3788.929688 3783.019531 3796.011719 3778.800781 3802.449219 Z M 3592.539062 3758.929688 C 3592 3754.53125 3590.359375 3740.421875 3590.359375 3732.5 C 3590.359375 3641.890625 3663.921875 3568.328125 3754.53125 3568.328125 C 3786.160156 3568.328125 3815.710938 3577.300781 3840.789062 3592.828125 L 3824.738281 3603.671875 C 3803.878906 3592.269531 3779.960938 3585.789062 3754.53125 3585.789062 C 3673.558594 3585.789062 3629 3618.660156 3599.699219 3704.710938 C 3597.980469 3709.78125 3594.578125 3722.429688 3593.949219 3731.511719 C 3593.238281 3741.839844 3592.480469 3754.769531 3592.539062 3758.929688 C 3592.648438 3759.789062 3592.710938 3760.28125 3592.710938 3760.28125 C 3592.609375 3760.320312 3592.558594 3759.828125 3592.539062 3758.929688 "/>
<path fill-rule="evenodd" fill="rgb(19.798279%, 19.798279%, 19.798279%)" fill-opacity="1" d="M 2582.011719 306.511719 L 2582.011719 2421 L 4696.5 2421 L 4696.5 306.511719 L 2582.011719 306.511719 "/>
<path fill-rule="evenodd" fill="rgb(86.326599%, 65.429688%, 17.30957%)" fill-opacity="1" d="M 2676.351562 224.699219 L 2676.351562 2339.191406 L 4790.839844 2339.191406 L 4790.839844 224.699219 L 2676.351562 224.699219 "/>
<path fill-rule="evenodd" fill="rgb(100%, 100%, 100%)" fill-opacity="1" d="M 4091.160156 1057.410156 C 4091.160156 1022.128906 4077.140625 988.289062 4052.199219 963.339844 C 4027.25 938.398438 3993.410156 924.378906 3958.128906 924.378906 C 3894.058594 924.378906 3813.828125 924.378906 3733.589844 924.378906 C 3638.761719 924.378906 3547.808594 962.050781 3480.761719 1029.109375 C 3413.699219 1096.160156 3376.03125 1187.109375 3376.03125 1281.941406 C 3376.03125 1376.78125 3413.699219 1467.71875 3480.761719 1534.78125 C 3547.808594 1601.839844 3638.761719 1639.511719 3733.589844 1639.511719 C 3813.828125 1639.511719 3894.058594 1639.511719 3958.128906 1639.511719 C 3993.410156 1639.511719 4027.25 1625.488281 4052.199219 1600.539062 C 4077.140625 1575.601562 4091.160156 1541.761719 4091.160156 1506.480469 C 4091.160156 1378.328125 4091.160156 1185.558594 4091.160156 1057.410156 Z M 3599.488281 1579.21875 C 3551.609375 1523.628906 3484.03125 1359.101562 3484.03125 1280.03125 C 3484.03125 1104.828125 3600.960938 984.671875 3776.160156 984.671875 C 3855.21875 984.671875 3927.578125 1013.640625 3983.160156 1061.53125 L 3871.011719 1130.769531 C 3836.460938 1104.078125 3823.378906 1100.671875 3776.160156 1100.671875 C 3663.699219 1100.671875 3556.109375 1195.410156 3556.109375 1306.589844 C 3556.109375 1354.089844 3571.621094 1544.761719 3599.488281 1579.21875 Z M 3748.238281 1423.078125 C 3748.238281 1423.078125 3828.648438 1553.941406 3663.28125 1551.691406 L 3672.390625 1480.011719 Z M 3842.078125 1369.421875 C 3842.078125 1369.421875 3838.019531 1409.960938 3904.679688 1430.230469 C 3904.679688 1430.230469 3854.21875 1488.339844 3942.921875 1551.691406 C 3942.921875 1551.691406 3808.859375 1547.53125 3782.128906 1408.578125 Z M 3639.910156 1466.101562 C 3640.691406 1467.039062 3641.800781 1467.621094 3643.011719 1467.738281 C 3644.21875 1467.851562 3645.421875 1467.480469 3646.351562 1466.710938 C 3660.308594 1455.148438 3711.648438 1412.660156 3725.609375 1401.101562 C 3726.539062 1400.328125 3727.128906 1399.21875 3727.25 1398.011719 C 3727.359375 1396.800781 3726.988281 1395.601562 3726.21875 1394.660156 C 3725.140625 1393.371094 3723.929688 1391.898438 3722.859375 1390.609375 C 3722.078125 1389.671875 3720.96875 1389.078125 3719.761719 1388.96875 C 3718.550781 1388.851562 3717.351562 1389.21875 3716.421875 1390 C 3702.460938 1401.550781 3651.121094 1444.050781 3637.160156 1455.601562 C 3636.230469 1456.371094 3635.640625 1457.488281 3635.519531 1458.699219 C 3635.410156 1459.898438 3635.78125 1461.109375 3636.550781 1462.039062 C 3637.628906 1463.339844 3638.839844 1464.808594 3639.910156 1466.101562 Z M 3823.988281 1327.039062 L 3790.628906 1283.050781 L 3909.898438 1196.890625 C 3879.171875 1251.789062 3968.128906 1314.578125 3968.128906 1314.578125 C 3914.308594 1283.070312 3869.730469 1307.921875 3847.871094 1325.609375 L 3837.601562 1334.839844 C 3834.820312 1337.628906 3832.960938 1338.871094 3832.960938 1338.871094 L 3788.910156 1377.171875 C 3786.339844 1380 3783.441406 1382.519531 3780.28125 1384.671875 L 3779.71875 1385.050781 C 3772.039062 1390.128906 3762.839844 1393.089844 3752.960938 1393.089844 C 3726.148438 1393.089844 3704.390625 1371.320312 3704.390625 1344.511719 C 3704.390625 1317.699219 3726.148438 1295.929688 3752.960938 1295.929688 C 3779.769531 1295.929688 3801.539062 1317.699219 3801.539062 1344.511719 C 3801.539062 1345.210938 3801.519531 1345.910156 3801.488281 1346.601562 Z M 3778.800781 1366.339844 L 3770.960938 1373.148438 C 3765.75 1376.429688 3759.578125 1378.328125 3752.960938 1378.328125 C 3734.289062 1378.328125 3719.140625 1363.179688 3719.140625 1344.511719 C 3719.140625 1325.839844 3734.289062 1310.679688 3752.960938 1310.679688 C 3771.628906 1310.679688 3786.789062 1325.839844 3786.789062 1344.511719 C 3786.789062 1352.820312 3783.019531 1359.898438 3778.800781 1366.339844 Z M 3592.539062 1322.820312 C 3592 1318.421875 3590.359375 1304.308594 3590.359375 1296.390625 C 3590.359375 1205.78125 3663.921875 1132.21875 3754.53125 1132.21875 C 3786.160156 1132.21875 3815.710938 1141.191406 3840.789062 1156.71875 L 3824.738281 1167.558594 C 3803.878906 1156.160156 3779.960938 1149.679688 3754.53125 1149.679688 C 3673.558594 1149.679688 3629 1182.550781 3599.699219 1268.601562 C 3597.980469 1273.671875 3594.578125 1286.320312 3593.949219 1295.398438 C 3593.238281 1305.730469 3592.480469 1318.660156 3592.539062 1322.820312 C 3592.648438 1323.679688 3592.710938 1324.171875 3592.710938 1324.171875 C 3592.609375 1324.210938 3592.558594 1323.71875 3592.539062 1322.820312 "/>
<path fill-rule="nonzero" fill="rgb(0%, 0%, 0%)" fill-opacity="1" d="M 1033.800781 3261.011719 L 1053.089844 3261.011719 L 1053.089844 3251.101562 L 1003.738281 3251.101562 L 1003.738281 3261.011719 L 1023.03125 3261.011719 L 1023.03125 3311.921875 L 1033.800781 3311.921875 L 1033.800781 3261.011719 "/>
<path fill-rule="nonzero" fill="rgb(0%, 0%, 0%)" fill-opacity="1" d="M 1088.019531 3250.671875 L 1078.109375 3250.671875 L 1051.351562 3311.921875 L 1062.300781 3311.921875 L 1068.550781 3297.238281 L 1097.308594 3297.238281 L 1103.480469 3311.921875 L 1114.78125 3311.921875 Z M 1093.398438 3287.769531 L 1072.460938 3287.769531 L 1082.890625 3263.441406 L 1093.398438 3287.769531 "/>
<path fill-rule="nonzero" fill="rgb(0%, 0%, 0%)" fill-opacity="1" d="M 1175.691406 3303.488281 L 1175.691406 3277.949219 L 1149.789062 3277.949219 L 1149.789062 3287.25 L 1165.351562 3287.25 L 1165.351562 3298.628906 C 1163.488281 3300.019531 1161.308594 3301.128906 1158.789062 3301.96875 C 1156.269531 3302.808594 1153.558594 3303.230469 1150.660156 3303.230469 C 1147.539062 3303.230469 1144.710938 3302.679688 1142.191406 3301.578125 C 1139.671875 3300.480469 1137.5 3298.960938 1135.679688 3297.019531 C 1133.851562 3295.078125 1132.449219 3292.78125 1131.460938 3290.109375 C 1130.480469 3287.449219 1129.980469 3284.550781 1129.980469 3281.421875 C 1129.980469 3278.46875 1130.488281 3275.691406 1131.5 3273.078125 C 1132.519531 3270.480469 1133.910156 3268.191406 1135.679688 3266.21875 C 1137.441406 3264.25 1139.53125 3262.699219 1141.929688 3261.570312 C 1144.339844 3260.441406 1146.929688 3259.878906 1149.710938 3259.878906 C 1151.621094 3259.878906 1153.371094 3260.03125 1154.960938 3260.351562 C 1156.558594 3260.671875 1158.019531 3261.109375 1159.351562 3261.660156 C 1160.679688 3262.210938 1161.960938 3262.890625 1163.179688 3263.699219 C 1164.390625 3264.511719 1165.578125 3265.410156 1166.738281 3266.390625 L 1173.519531 3258.308594 C 1171.949219 3256.980469 1170.339844 3255.808594 1168.691406 3254.789062 C 1167.039062 3253.78125 1165.289062 3252.921875 1163.441406 3252.230469 C 1161.578125 3251.53125 1159.570312 3251 1157.398438 3250.621094 C 1155.230469 3250.25 1152.808594 3250.058594 1150.140625 3250.058594 C 1145.570312 3250.058594 1141.351562 3250.898438 1137.5 3252.578125 C 1133.648438 3254.261719 1130.328125 3256.53125 1127.550781 3259.398438 C 1124.769531 3262.261719 1122.609375 3265.609375 1121.078125 3269.429688 C 1119.539062 3273.261719 1118.78125 3277.308594 1118.78125 3281.601562 C 1118.78125 3286.058594 1119.53125 3290.199219 1121.03125 3294.019531 C 1122.539062 3297.851562 1124.671875 3301.160156 1127.421875 3303.96875 C 1130.171875 3306.78125 1133.488281 3308.980469 1137.371094 3310.570312 C 1141.25 3312.171875 1145.570312 3312.960938 1150.320312 3312.960938 C 1152.980469 3312.960938 1155.53125 3312.71875 1157.960938 3312.230469 C 1160.390625 3311.730469 1162.671875 3311.050781 1164.78125 3310.179688 C 1166.898438 3309.308594 1168.871094 3308.300781 1170.691406 3307.140625 C 1172.519531 3305.980469 1174.179688 3304.769531 1175.691406 3303.488281 "/>
<path fill-rule="nonzero" fill="rgb(0%, 0%, 0%)" fill-opacity="1" d="M 1189.589844 3311.921875 L 1232.25 3311.921875 L 1232.25 3302.191406 L 1200.28125 3302.191406 L 1200.28125 3251.101562 L 1189.589844 3251.101562 L 1189.589844 3311.921875 "/>
<path fill-rule="nonzero" fill="rgb(0%, 0%, 0%)" fill-opacity="1" d="M 1243.980469 3251.101562 L 1243.980469 3311.921875 L 1254.671875 3311.921875 L 1254.671875 3251.101562 L 1243.980469 3251.101562 "/>
<path fill-rule="nonzero" fill="rgb(0%, 0%, 0%)" fill-opacity="1" d="M 1313.410156 3293.148438 L 1280.820312 3251.101562 L 1270.921875 3251.101562 L 1270.921875 3311.921875 L 1281.429688 3311.921875 L 1281.429688 3268.648438 L 1314.96875 3311.921875 L 1323.921875 3311.921875 L 1323.921875 3251.101562 L 1313.410156 3251.101562 L 1313.410156 3293.148438 "/>
<path fill-rule="nonzero" fill="rgb(0%, 0%, 0%)" fill-opacity="1" d="M 1384.648438 3251.101562 L 1339.558594 3251.101562 L 1339.558594 3311.921875 L 1385.089844 3311.921875 L 1385.089844 3302.359375 L 1350.238281 3302.359375 L 1350.238281 3286.03125 L 1380.738281 3286.03125 L 1380.738281 3276.46875 L 1350.238281 3276.46875 L 1350.238281 3260.660156 L 1384.648438 3260.660156 L 1384.648438 3251.101562 "/>
<path fill-rule="nonzero" fill="rgb(0%, 0%, 0%)" fill-opacity="1" d="M 1463.550781 3286.289062 L 1463.550781 3311.921875 L 1474.238281 3311.921875 L 1474.238281 3251.101562 L 1463.550781 3251.101562 L 1463.550781 3276.378906 L 1434.53125 3276.378906 L 1434.53125 3251.101562 L 1423.839844 3251.101562 L 1423.839844 3311.921875 L 1434.53125 3311.921875 L 1434.53125 3286.289062 L 1463.550781 3286.289062 "/>
<path fill-rule="nonzero" fill="rgb(0%, 0%, 0%)" fill-opacity="1" d="M 1534.96875 3251.101562 L 1489.878906 3251.101562 L 1489.878906 3311.921875 L 1535.398438 3311.921875 L 1535.398438 3302.359375 L 1500.558594 3302.359375 L 1500.558594 3286.03125 L 1531.058594 3286.03125 L 1531.058594 3276.46875 L 1500.558594 3276.46875 L 1500.558594 3260.660156 L 1534.96875 3260.660156 L 1534.96875 3251.101562 "/>
<path fill-rule="nonzero" fill="rgb(0%, 0%, 0%)" fill-opacity="1" d="M 1599.699219 3311.921875 L 1583.28125 3288.898438 C 1585.421875 3288.320312 1587.378906 3287.488281 1589.140625 3286.421875 C 1590.910156 3285.351562 1592.429688 3284.039062 1593.710938 3282.511719 C 1594.980469 3280.96875 1595.980469 3279.210938 1596.699219 3277.210938 C 1597.429688 3275.210938 1597.789062 3272.941406 1597.789062 3270.390625 C 1597.789062 3267.441406 1597.269531 3264.761719 1596.230469 3262.351562 C 1595.179688 3259.949219 1593.691406 3257.921875 1591.75 3256.269531 C 1589.808594 3254.621094 1587.441406 3253.339844 1584.628906 3252.449219 C 1581.820312 3251.550781 1578.671875 3251.101562 1575.199219 3251.101562 L 1548.089844 3251.101562 L 1548.089844 3311.921875 L 1558.78125 3311.921875 L 1558.78125 3290.71875 L 1572.160156 3290.71875 L 1587.101562 3311.921875 Z M 1586.929688 3271 C 1586.929688 3274.121094 1585.800781 3276.621094 1583.539062 3278.46875 C 1581.28125 3280.320312 1578.238281 3281.25 1574.421875 3281.25 L 1558.78125 3281.25 L 1558.78125 3260.828125 L 1574.328125 3260.828125 C 1578.328125 3260.828125 1581.429688 3261.691406 1583.628906 3263.390625 C 1585.828125 3265.101562 1586.929688 3267.640625 1586.929688 3271 "/>
<path fill-rule="nonzero" fill="rgb(0%, 0%, 0%)" fill-opacity="1" d="M 1656.011719 3251.101562 L 1610.910156 3251.101562 L 1610.910156 3311.921875 L 1656.441406 3311.921875 L 1656.441406 3302.359375 L 1621.601562 3302.359375 L 1621.601562 3286.03125 L 1652.089844 3286.03125 L 1652.089844 3276.46875 L 1621.601562 3276.46875 L 1621.601562 3260.660156 L 1656.011719 3260.660156 L 1656.011719 3251.101562 "/>
<path fill-rule="nonzero" fill="rgb(0%, 0%, 0%)" fill-opacity="1" d="M 832.539062 3038.808594 L 684.960938 3038.808594 L 672.472656 3051.300781 L 672.472656 3126.960938 L 684.960938 3139.449219 L 768.863281 3139.449219 L 768.863281 3173.660156 L 673.722656 3173.660156 L 654.742188 3213.609375 L 802.074219 3213.609375 L 822.050781 3193.628906 L 822.050781 3127.710938 L 802.074219 3107.730469 L 725.410156 3107.730469 L 725.410156 3077.519531 L 815.308594 3077.519531 L 832.539062 3038.808594 "/>
<path fill-rule="nonzero" fill="rgb(0%, 0%, 0%)" fill-opacity="1" d="M 860.007812 3038.808594 L 847.519531 3051.300781 L 847.519531 3201.121094 L 860.007812 3213.609375 L 900.460938 3213.609375 L 900.460938 3106.480469 L 889.472656 3106.480469 L 889.472656 3077.519531 L 959.390625 3077.519531 L 959.390625 3126.960938 L 926.429688 3126.960938 L 912.195312 3160.171875 L 983.863281 3160.171875 L 1003.839844 3140.191406 L 1003.839844 3058.789062 L 983.863281 3038.808594 L 860.007812 3038.808594 "/>
<path fill-rule="nonzero" fill="rgb(0%, 0%, 0%)" fill-opacity="1" d="M 1152.671875 3038.808594 L 1097.480469 3038.808594 L 1018.570312 3213.609375 L 1067.769531 3213.609375 L 1098.480469 3145.691406 L 1109.46875 3145.691406 L 1129.191406 3088.761719 L 1152.421875 3151.179688 L 1118.460938 3151.179688 L 1106.46875 3184.640625 L 1167.398438 3184.640625 L 1180.640625 3213.609375 L 1231.578125 3213.609375 L 1152.671875 3038.808594 "/>
<path fill-rule="nonzero" fill="rgb(0%, 0%, 0%)" fill-opacity="1" d="M 1393.140625 3142.941406 L 1413.121094 3122.960938 L 1413.121094 3058.789062 C 1405.378906 3050.800781 1400.878906 3046.550781 1393.140625 3038.808594 L 1259.289062 3038.808594 C 1254.300781 3043.558594 1251.550781 3046.300781 1246.808594 3051.300781 L 1246.808594 3201.121094 C 1251.550781 3206.121094 1254.300781 3208.621094 1259.289062 3213.609375 L 1299.75 3213.609375 L 1299.75 3106.480469 L 1288.761719 3106.480469 L 1288.761719 3077.519531 L 1368.671875 3077.519531 L 1368.671875 3109.730469 L 1332.460938 3109.730469 L 1318.230469 3142.941406 L 1364.671875 3213.609375 L 1426.601562 3213.609375 L 1372.660156 3142.941406 L 1393.140625 3142.941406 "/>
<path fill-rule="nonzero" fill="rgb(0%, 0%, 0%)" fill-opacity="1" d="M 1438.089844 3051.300781 L 1438.089844 3077.519531 L 1496.019531 3077.519531 L 1496.019531 3201.121094 L 1508.511719 3213.609375 L 1548.960938 3213.609375 L 1548.960938 3105.238281 L 1537.96875 3105.238281 L 1537.96875 3077.519531 L 1589.910156 3077.519531 L 1606.890625 3038.808594 L 1450.570312 3038.808594 L 1438.089844 3051.300781 "/>
<path fill-rule="nonzero" fill="rgb(0%, 0%, 0%)" fill-opacity="1" d="M 1736.988281 3038.808594 L 1681.808594 3038.808594 L 1602.898438 3213.609375 L 1652.089844 3213.609375 L 1682.800781 3145.691406 L 1693.789062 3145.691406 L 1713.519531 3088.761719 L 1736.738281 3151.179688 L 1702.78125 3151.179688 L 1690.800781 3184.640625 L 1751.71875 3184.640625 L 1764.960938 3213.609375 L 1815.898438 3213.609375 L 1736.988281 3038.808594 "/>
<path fill-rule="nonzero" fill="rgb(0%, 0%, 0%)" fill-opacity="1" d="M 1952.488281 3107.230469 L 1963.480469 3107.230469 L 1963.480469 3134.949219 L 1952.488281 3134.949219 L 1879.078125 3038.808594 L 1843.621094 3038.808594 L 1831.128906 3051.300781 L 1831.128906 3201.121094 L 1843.621094 3213.609375 L 1884.070312 3213.609375 L 1884.070312 3118.71875 L 1957.488281 3213.609375 L 2005.429688 3213.609375 L 2005.429688 3038.808594 L 1952.488281 3038.808594 L 1952.488281 3107.230469 "/>
<path fill-rule="evenodd" fill="rgb(0%, 0%, 0%)" fill-opacity="1" d="M 1941.320312 1914.441406 C 1941.320312 1854.128906 1917.359375 1796.289062 1874.71875 1753.640625 C 1832.070312 1710.988281 1774.230469 1687.039062 1713.921875 1687.039062 C 1604.390625 1687.039062 1467.238281 1687.039062 1330.089844 1687.039062 C 1167.980469 1687.039062 1012.511719 1751.429688 897.878906 1866.058594 C 783.253906 1980.691406 718.855469 2136.160156 718.855469 2298.269531 C 718.855469 2460.378906 783.253906 2615.851562 897.878906 2730.46875 C 1012.511719 2845.101562 1167.980469 2909.5 1330.089844 2909.5 C 1467.238281 2909.5 1604.390625 2909.5 1713.921875 2909.5 C 1774.230469 2909.5 1832.070312 2885.539062 1874.71875 2842.898438 C 1917.359375 2800.25 1941.320312 2742.410156 1941.320312 2682.101562 C 1941.320312 2463.039062 1941.320312 2133.5 1941.320312 1914.441406 Z M 1100.851562 2806.429688 C 1018.988281 2711.410156 903.464844 2430.148438 903.464844 2295 C 903.464844 1995.511719 1103.359375 1790.101562 1402.851562 1790.101562 C 1538.011719 1790.101562 1661.691406 1839.621094 1756.710938 1921.488281 L 1565 2039.839844 C 1505.929688 1994.21875 1483.570312 1988.378906 1402.851562 1988.378906 C 1210.609375 1988.378906 1026.679688 2150.339844 1026.679688 2340.390625 C 1026.679688 2421.601562 1053.210938 2747.53125 1100.851562 2806.429688 Z M 1355.121094 2539.539062 C 1355.121094 2539.539062 1492.578125 2763.230469 1209.878906 2759.378906 L 1225.460938 2636.851562 Z M 1515.53125 2447.800781 C 1515.53125 2447.800781 1508.601562 2517.109375 1622.550781 2551.75 C 1622.550781 2551.75 1536.28125 2651.089844 1687.921875 2759.378906 C 1687.921875 2759.378906 1458.75 2752.269531 1413.050781 2514.738281 Z M 1169.941406 2613.070312 C 1171.269531 2614.671875 1173.171875 2615.679688 1175.230469 2615.871094 C 1177.300781 2616.070312 1179.359375 2615.429688 1180.949219 2614.109375 C 1204.808594 2594.359375 1292.578125 2521.710938 1316.441406 2501.960938 C 1318.03125 2500.640625 1319.039062 2498.738281 1319.238281 2496.671875 C 1319.429688 2494.609375 1318.800781 2492.550781 1317.46875 2490.960938 C 1315.640625 2488.738281 1313.558594 2486.230469 1311.730469 2484.019531 C 1310.410156 2482.421875 1308.5 2481.410156 1306.441406 2481.21875 C 1304.378906 2481.019531 1302.320312 2481.660156 1300.71875 2482.980469 C 1276.859375 2502.730469 1189.101562 2575.371094 1165.238281 2595.121094 C 1163.640625 2596.449219 1162.628906 2598.351562 1162.441406 2600.410156 C 1162.238281 2602.480469 1162.878906 2604.53125 1164.199219 2606.128906 C 1166.03125 2608.351562 1168.109375 2610.859375 1169.941406 2613.070312 Z M 1484.609375 2375.359375 L 1427.578125 2300.160156 L 1631.460938 2152.859375 C 1578.941406 2246.71875 1731.011719 2354.050781 1731.011719 2354.050781 C 1639.011719 2300.191406 1562.789062 2342.671875 1525.429688 2372.898438 L 1507.871094 2388.691406 C 1503.128906 2393.449219 1499.949219 2395.578125 1499.949219 2395.578125 L 1424.640625 2461.050781 C 1420.238281 2465.878906 1415.289062 2470.191406 1409.890625 2473.878906 L 1408.929688 2474.519531 C 1395.808594 2483.199219 1380.089844 2488.25 1363.191406 2488.25 C 1317.359375 2488.25 1280.148438 2451.050781 1280.148438 2405.21875 C 1280.148438 2359.390625 1317.359375 2322.179688 1363.191406 2322.179688 C 1409.019531 2322.179688 1446.230469 2359.390625 1446.230469 2405.21875 C 1446.230469 2406.421875 1446.210938 2407.609375 1446.160156 2408.789062 Z M 1407.359375 2442.53125 L 1393.960938 2454.171875 C 1385.050781 2459.789062 1374.5 2463.039062 1363.191406 2463.039062 C 1331.28125 2463.039062 1305.371094 2437.128906 1305.371094 2405.21875 C 1305.371094 2373.300781 1331.28125 2347.390625 1363.191406 2347.390625 C 1395.109375 2347.390625 1421.019531 2373.300781 1421.019531 2405.21875 C 1421.019531 2419.429688 1414.578125 2431.53125 1407.359375 2442.53125 Z M 1088.960938 2368.140625 C 1088.050781 2360.621094 1085.238281 2336.5 1085.238281 2322.960938 C 1085.238281 2168.070312 1210.988281 2042.328125 1365.871094 2042.328125 C 1419.941406 2042.328125 1470.460938 2057.648438 1513.339844 2084.199219 L 1485.890625 2102.730469 C 1450.230469 2083.238281 1409.339844 2072.160156 1365.871094 2072.160156 C 1227.460938 2072.160156 1151.289062 2128.359375 1101.210938 2275.460938 C 1098.261719 2284.128906 1092.449219 2305.75 1091.371094 2321.28125 C 1090.148438 2338.921875 1088.851562 2361.03125 1088.960938 2368.140625 C 1089.140625 2369.609375 1089.25 2370.449219 1089.25 2370.449219 C 1089.078125 2370.511719 1088.988281 2369.679688 1088.960938 2368.140625 "/>
</svg>
